<?xml version="1.0" encoding="utf-8" standalone="no"?>
<!DOCTYPE svg PUBLIC "-//W3C//DTD SVG 1.1//EN"
  "http://www.w3.org/Graphics/SVG/1.1/DTD/svg11.dtd">
<svg xmlns:xlink="http://www.w3.org/1999/xlink" width="1382.4pt" height="702pt" viewBox="0 0 1382.4 702" xmlns="http://www.w3.org/2000/svg" version="1.1">
 <metadata>
  <rdf:RDF xmlns:dc="http://purl.org/dc/elements/1.1/" xmlns:cc="http://creativecommons.org/ns#" xmlns:rdf="http://www.w3.org/1999/02/22-rdf-syntax-ns#">
   <cc:Work>
    <dc:type rdf:resource="http://purl.org/dc/dcmitype/StillImage"/>
    <dc:date>2023-11-15T00:27:11.619262</dc:date>
    <dc:format>image/svg+xml</dc:format>
    <dc:creator>
     <cc:Agent>
      <dc:title>Matplotlib v3.8.0, https://matplotlib.org/</dc:title>
     </cc:Agent>
    </dc:creator>
   </cc:Work>
  </rdf:RDF>
 </metadata>
 <defs>
  <style type="text/css">*{stroke-linejoin: round; stroke-linecap: butt}</style>
 </defs>
 <g id="figure_1">
  <g id="patch_1">
   <path d="M 0 702 
L 1382.4 702 
L 1382.4 0 
L 0 0 
z
" style="fill: #ffffff"/>
  </g>
  <g id="axes_1">
   <g id="patch_2">
    <path d="M 172.8 624.78 
L 1244.16 624.78 
L 1244.16 84.24 
L 172.8 84.24 
z
" style="fill: #ffffff"/>
   </g>
   <g id="matplotlib.axis_1">
    <g id="xtick_1">
     <g id="line2d_1">
      <defs>
       <path id="m549a52cd04" d="M 0 0 
L 0 3.5 
" style="stroke: #000000; stroke-width: 0.8"/>
      </defs>
      <g>
       <use xlink:href="#m549a52cd04" x="221.498182" y="624.78" style="stroke: #000000; stroke-width: 0.8"/>
      </g>
     </g>
     <g id="text_1">
      <!-- 0 -->
      <g transform="translate(218.316932 639.378438) scale(0.1 -0.1)">
       <defs>
        <path id="DejaVuSans-30" d="M 2034 4250 
Q 1547 4250 1301 3770 
Q 1056 3291 1056 2328 
Q 1056 1369 1301 889 
Q 1547 409 2034 409 
Q 2525 409 2770 889 
Q 3016 1369 3016 2328 
Q 3016 3291 2770 3770 
Q 2525 4250 2034 4250 
z
M 2034 4750 
Q 2819 4750 3233 4129 
Q 3647 3509 3647 2328 
Q 3647 1150 3233 529 
Q 2819 -91 2034 -91 
Q 1250 -91 836 529 
Q 422 1150 422 2328 
Q 422 3509 836 4129 
Q 1250 4750 2034 4750 
z
" transform="scale(0.015625)"/>
       </defs>
       <use xlink:href="#DejaVuSans-30"/>
      </g>
     </g>
    </g>
    <g id="xtick_2">
     <g id="line2d_2">
      <g>
       <use xlink:href="#m549a52cd04" x="359.845289" y="624.78" style="stroke: #000000; stroke-width: 0.8"/>
      </g>
     </g>
     <g id="text_2">
      <!-- 250 -->
      <g transform="translate(350.301539 639.378438) scale(0.1 -0.1)">
       <defs>
        <path id="DejaVuSans-32" d="M 1228 531 
L 3431 531 
L 3431 0 
L 469 0 
L 469 531 
Q 828 903 1448 1529 
Q 2069 2156 2228 2338 
Q 2531 2678 2651 2914 
Q 2772 3150 2772 3378 
Q 2772 3750 2511 3984 
Q 2250 4219 1831 4219 
Q 1534 4219 1204 4116 
Q 875 4013 500 3803 
L 500 4441 
Q 881 4594 1212 4672 
Q 1544 4750 1819 4750 
Q 2544 4750 2975 4387 
Q 3406 4025 3406 3419 
Q 3406 3131 3298 2873 
Q 3191 2616 2906 2266 
Q 2828 2175 2409 1742 
Q 1991 1309 1228 531 
z
" transform="scale(0.015625)"/>
        <path id="DejaVuSans-35" d="M 691 4666 
L 3169 4666 
L 3169 4134 
L 1269 4134 
L 1269 2991 
Q 1406 3038 1543 3061 
Q 1681 3084 1819 3084 
Q 2600 3084 3056 2656 
Q 3513 2228 3513 1497 
Q 3513 744 3044 326 
Q 2575 -91 1722 -91 
Q 1428 -91 1123 -41 
Q 819 9 494 109 
L 494 744 
Q 775 591 1075 516 
Q 1375 441 1709 441 
Q 2250 441 2565 725 
Q 2881 1009 2881 1497 
Q 2881 1984 2565 2268 
Q 2250 2553 1709 2553 
Q 1456 2553 1204 2497 
Q 953 2441 691 2322 
L 691 4666 
z
" transform="scale(0.015625)"/>
       </defs>
       <use xlink:href="#DejaVuSans-32"/>
       <use xlink:href="#DejaVuSans-35" x="63.623047"/>
       <use xlink:href="#DejaVuSans-30" x="127.246094"/>
      </g>
     </g>
    </g>
    <g id="xtick_3">
     <g id="line2d_3">
      <g>
       <use xlink:href="#m549a52cd04" x="498.192397" y="624.78" style="stroke: #000000; stroke-width: 0.8"/>
      </g>
     </g>
     <g id="text_3">
      <!-- 500 -->
      <g transform="translate(488.648647 639.378438) scale(0.1 -0.1)">
       <use xlink:href="#DejaVuSans-35"/>
       <use xlink:href="#DejaVuSans-30" x="63.623047"/>
       <use xlink:href="#DejaVuSans-30" x="127.246094"/>
      </g>
     </g>
    </g>
    <g id="xtick_4">
     <g id="line2d_4">
      <g>
       <use xlink:href="#m549a52cd04" x="636.539504" y="624.78" style="stroke: #000000; stroke-width: 0.8"/>
      </g>
     </g>
     <g id="text_4">
      <!-- 750 -->
      <g transform="translate(626.995754 639.378438) scale(0.1 -0.1)">
       <defs>
        <path id="DejaVuSans-37" d="M 525 4666 
L 3525 4666 
L 3525 4397 
L 1831 0 
L 1172 0 
L 2766 4134 
L 525 4134 
L 525 4666 
z
" transform="scale(0.015625)"/>
       </defs>
       <use xlink:href="#DejaVuSans-37"/>
       <use xlink:href="#DejaVuSans-35" x="63.623047"/>
       <use xlink:href="#DejaVuSans-30" x="127.246094"/>
      </g>
     </g>
    </g>
    <g id="xtick_5">
     <g id="line2d_5">
      <g>
       <use xlink:href="#m549a52cd04" x="774.886612" y="624.78" style="stroke: #000000; stroke-width: 0.8"/>
      </g>
     </g>
     <g id="text_5">
      <!-- 1000 -->
      <g transform="translate(762.161612 639.378438) scale(0.1 -0.1)">
       <defs>
        <path id="DejaVuSans-31" d="M 794 531 
L 1825 531 
L 1825 4091 
L 703 3866 
L 703 4441 
L 1819 4666 
L 2450 4666 
L 2450 531 
L 3481 531 
L 3481 0 
L 794 0 
L 794 531 
z
" transform="scale(0.015625)"/>
       </defs>
       <use xlink:href="#DejaVuSans-31"/>
       <use xlink:href="#DejaVuSans-30" x="63.623047"/>
       <use xlink:href="#DejaVuSans-30" x="127.246094"/>
       <use xlink:href="#DejaVuSans-30" x="190.869141"/>
      </g>
     </g>
    </g>
    <g id="xtick_6">
     <g id="line2d_6">
      <g>
       <use xlink:href="#m549a52cd04" x="913.233719" y="624.78" style="stroke: #000000; stroke-width: 0.8"/>
      </g>
     </g>
     <g id="text_6">
      <!-- 1250 -->
      <g transform="translate(900.508719 639.378438) scale(0.1 -0.1)">
       <use xlink:href="#DejaVuSans-31"/>
       <use xlink:href="#DejaVuSans-32" x="63.623047"/>
       <use xlink:href="#DejaVuSans-35" x="127.246094"/>
       <use xlink:href="#DejaVuSans-30" x="190.869141"/>
      </g>
     </g>
    </g>
    <g id="xtick_7">
     <g id="line2d_7">
      <g>
       <use xlink:href="#m549a52cd04" x="1051.580826" y="624.78" style="stroke: #000000; stroke-width: 0.8"/>
      </g>
     </g>
     <g id="text_7">
      <!-- 1500 -->
      <g transform="translate(1038.855826 639.378438) scale(0.1 -0.1)">
       <use xlink:href="#DejaVuSans-31"/>
       <use xlink:href="#DejaVuSans-35" x="63.623047"/>
       <use xlink:href="#DejaVuSans-30" x="127.246094"/>
       <use xlink:href="#DejaVuSans-30" x="190.869141"/>
      </g>
     </g>
    </g>
    <g id="xtick_8">
     <g id="line2d_8">
      <g>
       <use xlink:href="#m549a52cd04" x="1189.927934" y="624.78" style="stroke: #000000; stroke-width: 0.8"/>
      </g>
     </g>
     <g id="text_8">
      <!-- 1750 -->
      <g transform="translate(1177.202934 639.378438) scale(0.1 -0.1)">
       <use xlink:href="#DejaVuSans-31"/>
       <use xlink:href="#DejaVuSans-37" x="63.623047"/>
       <use xlink:href="#DejaVuSans-35" x="127.246094"/>
       <use xlink:href="#DejaVuSans-30" x="190.869141"/>
      </g>
     </g>
    </g>
   </g>
   <g id="matplotlib.axis_2">
    <g id="ytick_1">
     <g id="line2d_9">
      <defs>
       <path id="m706e71d040" d="M 0 0 
L -3.5 0 
" style="stroke: #000000; stroke-width: 0.8"/>
      </defs>
      <g>
       <use xlink:href="#m706e71d040" x="172.8" y="579.936896" style="stroke: #000000; stroke-width: 0.8"/>
      </g>
     </g>
     <g id="text_9">
      <!-- 12.5 -->
      <g transform="translate(143.534375 583.736114) scale(0.1 -0.1)">
       <defs>
        <path id="DejaVuSans-2e" d="M 684 794 
L 1344 794 
L 1344 0 
L 684 0 
L 684 794 
z
" transform="scale(0.015625)"/>
       </defs>
       <use xlink:href="#DejaVuSans-31"/>
       <use xlink:href="#DejaVuSans-32" x="63.623047"/>
       <use xlink:href="#DejaVuSans-2e" x="127.246094"/>
       <use xlink:href="#DejaVuSans-35" x="159.033203"/>
      </g>
     </g>
    </g>
    <g id="ytick_2">
     <g id="line2d_10">
      <g>
       <use xlink:href="#m706e71d040" x="172.8" y="510.317718" style="stroke: #000000; stroke-width: 0.8"/>
      </g>
     </g>
     <g id="text_10">
      <!-- 15.0 -->
      <g transform="translate(143.534375 514.116937) scale(0.1 -0.1)">
       <use xlink:href="#DejaVuSans-31"/>
       <use xlink:href="#DejaVuSans-35" x="63.623047"/>
       <use xlink:href="#DejaVuSans-2e" x="127.246094"/>
       <use xlink:href="#DejaVuSans-30" x="159.033203"/>
      </g>
     </g>
    </g>
    <g id="ytick_3">
     <g id="line2d_11">
      <g>
       <use xlink:href="#m706e71d040" x="172.8" y="440.698541" style="stroke: #000000; stroke-width: 0.8"/>
      </g>
     </g>
     <g id="text_11">
      <!-- 17.5 -->
      <g transform="translate(143.534375 444.49776) scale(0.1 -0.1)">
       <use xlink:href="#DejaVuSans-31"/>
       <use xlink:href="#DejaVuSans-37" x="63.623047"/>
       <use xlink:href="#DejaVuSans-2e" x="127.246094"/>
       <use xlink:href="#DejaVuSans-35" x="159.033203"/>
      </g>
     </g>
    </g>
    <g id="ytick_4">
     <g id="line2d_12">
      <g>
       <use xlink:href="#m706e71d040" x="172.8" y="371.079364" style="stroke: #000000; stroke-width: 0.8"/>
      </g>
     </g>
     <g id="text_12">
      <!-- 20.0 -->
      <g transform="translate(143.534375 374.878583) scale(0.1 -0.1)">
       <use xlink:href="#DejaVuSans-32"/>
       <use xlink:href="#DejaVuSans-30" x="63.623047"/>
       <use xlink:href="#DejaVuSans-2e" x="127.246094"/>
       <use xlink:href="#DejaVuSans-30" x="159.033203"/>
      </g>
     </g>
    </g>
    <g id="ytick_5">
     <g id="line2d_13">
      <g>
       <use xlink:href="#m706e71d040" x="172.8" y="301.460187" style="stroke: #000000; stroke-width: 0.8"/>
      </g>
     </g>
     <g id="text_13">
      <!-- 22.5 -->
      <g transform="translate(143.534375 305.259406) scale(0.1 -0.1)">
       <use xlink:href="#DejaVuSans-32"/>
       <use xlink:href="#DejaVuSans-32" x="63.623047"/>
       <use xlink:href="#DejaVuSans-2e" x="127.246094"/>
       <use xlink:href="#DejaVuSans-35" x="159.033203"/>
      </g>
     </g>
    </g>
    <g id="ytick_6">
     <g id="line2d_14">
      <g>
       <use xlink:href="#m706e71d040" x="172.8" y="231.84101" style="stroke: #000000; stroke-width: 0.8"/>
      </g>
     </g>
     <g id="text_14">
      <!-- 25.0 -->
      <g transform="translate(143.534375 235.640229) scale(0.1 -0.1)">
       <use xlink:href="#DejaVuSans-32"/>
       <use xlink:href="#DejaVuSans-35" x="63.623047"/>
       <use xlink:href="#DejaVuSans-2e" x="127.246094"/>
       <use xlink:href="#DejaVuSans-30" x="159.033203"/>
      </g>
     </g>
    </g>
    <g id="ytick_7">
     <g id="line2d_15">
      <g>
       <use xlink:href="#m706e71d040" x="172.8" y="162.221833" style="stroke: #000000; stroke-width: 0.8"/>
      </g>
     </g>
     <g id="text_15">
      <!-- 27.5 -->
      <g transform="translate(143.534375 166.021051) scale(0.1 -0.1)">
       <use xlink:href="#DejaVuSans-32"/>
       <use xlink:href="#DejaVuSans-37" x="63.623047"/>
       <use xlink:href="#DejaVuSans-2e" x="127.246094"/>
       <use xlink:href="#DejaVuSans-35" x="159.033203"/>
      </g>
     </g>
    </g>
    <g id="ytick_8">
     <g id="line2d_16">
      <g>
       <use xlink:href="#m706e71d040" x="172.8" y="92.602656" style="stroke: #000000; stroke-width: 0.8"/>
      </g>
     </g>
     <g id="text_16">
      <!-- 30.0 -->
      <g transform="translate(143.534375 96.401874) scale(0.1 -0.1)">
       <defs>
        <path id="DejaVuSans-33" d="M 2597 2516 
Q 3050 2419 3304 2112 
Q 3559 1806 3559 1356 
Q 3559 666 3084 287 
Q 2609 -91 1734 -91 
Q 1441 -91 1130 -33 
Q 819 25 488 141 
L 488 750 
Q 750 597 1062 519 
Q 1375 441 1716 441 
Q 2309 441 2620 675 
Q 2931 909 2931 1356 
Q 2931 1769 2642 2001 
Q 2353 2234 1838 2234 
L 1294 2234 
L 1294 2753 
L 1863 2753 
Q 2328 2753 2575 2939 
Q 2822 3125 2822 3475 
Q 2822 3834 2567 4026 
Q 2313 4219 1838 4219 
Q 1578 4219 1281 4162 
Q 984 4106 628 3988 
L 628 4550 
Q 988 4650 1302 4700 
Q 1616 4750 1894 4750 
Q 2613 4750 3031 4423 
Q 3450 4097 3450 3541 
Q 3450 3153 3228 2886 
Q 3006 2619 2597 2516 
z
" transform="scale(0.015625)"/>
       </defs>
       <use xlink:href="#DejaVuSans-33"/>
       <use xlink:href="#DejaVuSans-30" x="63.623047"/>
       <use xlink:href="#DejaVuSans-2e" x="127.246094"/>
       <use xlink:href="#DejaVuSans-30" x="159.033203"/>
      </g>
     </g>
    </g>
   </g>
   <g id="line2d_17">
    <path d="M 221.498182 302.351312 
L 222.05157 305.414556 
L 222.604959 307.558827 
L 223.158347 290.18188 
L 223.711736 295.110918 
L 224.265124 298.981744 
L 224.818512 281.019997 
L 225.371901 279.599765 
L 225.925289 291.824893 
L 226.478678 293.384362 
L 227.032066 288.87304 
L 227.585455 276.508674 
L 228.138843 293.829925 
L 228.692231 293.245124 
L 230.352397 284.890823 
L 230.905785 273.501125 
L 231.459174 286.673074 
L 232.012562 284.779432 
L 232.56595 286.868007 
L 233.119339 294.080554 
L 233.672727 290.460357 
L 234.226116 316.525777 
L 234.779504 311.680282 
L 235.332893 316.692863 
L 235.886281 317.500445 
L 236.439669 323.097827 
L 236.993058 342.702588 
L 237.546446 339.165933 
L 238.099835 332.733121 
L 238.653223 331.507824 
L 239.206612 302.852571 
L 239.76 294.748898 
L 240.313388 295.222309 
L 240.866777 282.078208 
L 241.420165 276.814998 
L 241.973554 264.032917 
L 242.526942 268.405002 
L 243.080331 264.255699 
L 243.633719 274.837814 
L 244.187107 273.668211 
L 244.740496 276.787151 
L 245.293884 287.703438 
L 246.400661 276.341588 
L 246.95405 276.870694 
L 247.507438 282.690857 
L 248.060826 280.852911 
L 248.614215 273.528973 
L 249.720992 251.195141 
L 250.27438 244.87372 
L 250.827769 244.03829 
L 251.934545 228.944852 
L 252.487934 227.970184 
L 253.041322 242.84084 
L 253.594711 243.453489 
L 254.148099 243.67627 
L 254.701488 239.916834 
L 255.254876 266.288579 
L 255.808264 269.184736 
L 256.361653 294.97168 
L 256.915041 295.472938 
L 257.46843 300.485519 
L 258.021818 297.11595 
L 258.575207 295.667871 
L 259.128595 294.693203 
L 259.681983 292.521085 
L 260.235372 295.027375 
L 260.78876 292.910952 
L 261.895537 267.597419 
L 262.448926 268.126525 
L 263.002314 263.253183 
L 263.555702 250.61034 
L 264.109091 232.620745 
L 264.662479 245.904084 
L 265.215868 252.921697 
L 265.769256 236.26879 
L 266.322645 240.334549 
L 266.876033 247.129381 
L 267.429421 235.878922 
L 267.98281 232.063791 
L 268.536198 221.063961 
L 269.089587 224.712006 
L 269.642975 231.339752 
L 270.196364 226.438562 
L 270.749752 233.261241 
L 271.30314 251.055903 
L 271.856529 279.711156 
L 272.409917 277.928905 
L 272.963306 279.488375 
L 273.516694 290.599595 
L 274.070083 276.341588 
L 274.623471 282.857943 
L 275.17686 284.417412 
L 275.730248 292.827409 
L 276.283636 298.926049 
L 276.837025 291.212244 
L 277.390413 289.23506 
L 277.943802 292.966647 
L 278.49719 306.249986 
L 279.050579 303.242438 
L 279.603967 293.829925 
L 280.157355 282.161751 
L 280.710744 257.962125 
L 281.264132 254.174842 
L 281.817521 257.572258 
L 282.370909 262.724077 
L 282.924298 256.764675 
L 283.477686 264.645566 
L 284.031074 258.045668 
L 284.584463 248.271136 
L 285.137851 249.997691 
L 285.69124 272.804934 
L 286.244628 268.878412 
L 286.798017 269.853081 
L 287.351405 266.734141 
L 287.904793 260.0507 
L 289.01157 280.880758 
L 289.564959 280.101023 
L 290.118347 276.035264 
L 290.671736 280.630129 
L 291.225124 293.022343 
L 292.885289 266.845532 
L 293.438678 261.13676 
L 293.992066 272.97202 
L 294.545455 265.564539 
L 295.098843 265.731625 
L 295.652231 254.815338 
L 296.20562 255.400139 
L 296.759008 247.881268 
L 297.312397 213.517242 
L 297.865785 206.833801 
L 298.419174 208.616052 
L 298.972562 205.942676 
L 299.52595 194.023873 
L 300.079339 212.876746 
L 300.632727 214.603302 
L 301.186116 225.436046 
L 301.739504 225.547436 
L 302.292893 226.020847 
L 302.846281 229.863825 
L 303.399669 229.390415 
L 303.953058 217.24883 
L 304.506446 224.043662 
L 305.059835 215.271646 
L 305.613223 215.410884 
L 306.166612 218.362737 
L 306.72 229.390415 
L 307.273388 219.031081 
L 307.826777 206.081914 
L 308.380165 219.086777 
L 309.486942 234.291605 
L 310.040331 229.251176 
L 310.593719 230.810646 
L 311.147107 229.028395 
L 311.700496 259.10388 
L 312.253884 255.344444 
L 312.807273 259.995005 
L 313.360661 276.647912 
L 313.91405 277.928905 
L 314.467438 285.447776 
L 315.020826 280.657977 
L 315.574215 283.526287 
L 316.127603 296.586845 
L 316.680992 306.361377 
L 317.23438 300.541214 
L 317.787769 305.60949 
L 318.341157 326.857263 
L 319.447934 317.361207 
L 320.001322 321.14849 
L 320.554711 360.636488 
L 321.108099 370.383172 
L 321.661488 370.940126 
L 322.214876 369.57559 
L 322.768264 343.677256 
L 323.321653 336.603948 
L 323.875041 349.748048 
L 324.42843 344.373448 
L 324.981818 344.317752 
L 325.535207 352.421425 
L 326.088595 348.522751 
L 326.641983 334.710306 
L 327.195372 324.37882 
L 327.74876 318.447266 
L 328.302149 320.730775 
L 328.855537 326.578786 
L 329.408926 323.320609 
L 329.962314 323.459847 
L 330.515702 327.302826 
L 331.069091 318.920677 
L 331.622479 319.505478 
L 332.175868 313.295447 
L 332.729256 311.401806 
L 333.282645 303.688001 
L 333.836033 310.454985 
L 334.389421 308.784124 
L 334.94281 304.105716 
L 335.496198 270.410034 
L 336.049587 270.57712 
L 336.602975 264.255699 
L 337.156364 267.124009 
L 337.709752 272.665695 
L 338.26314 261.443084 
L 338.816529 263.977222 
L 339.923306 274.141622 
L 340.476694 263.587355 
L 341.030083 265.508844 
L 341.583471 271.691027 
L 342.690248 247.01799 
L 343.243636 248.131897 
L 343.797025 251.919181 
L 344.903802 274.141622 
L 346.010579 263.28103 
L 346.563967 260.189939 
L 347.117355 275.728939 
L 347.670744 260.691197 
L 348.224132 253.11663 
L 348.777521 250.554645 
L 349.330909 258.574774 
L 349.884298 252.726763 
L 350.437686 264.144308 
L 350.991074 253.645736 
L 352.097851 261.916494 
L 352.65124 270.2151 
L 353.204628 254.286233 
L 353.758017 252.141962 
L 354.311405 281.994665 
L 354.864793 278.402316 
L 355.418182 279.042812 
L 355.97157 255.901397 
L 356.524959 259.967157 
L 357.078347 276.31374 
L 357.631736 267.569572 
L 358.185124 280.685825 
L 358.738512 289.70847 
L 359.291901 306.055053 
L 359.845289 303.771544 
L 360.398678 280.574434 
L 360.952066 291.964131 
L 361.505455 321.482662 
L 362.612231 339.750734 
L 363.16562 326.272462 
L 363.719008 329.085077 
L 364.272397 328.583818 
L 364.825785 336.854577 
L 365.379174 346.796195 
L 365.932562 343.315236 
L 366.48595 343.927885 
L 367.039339 328.639514 
L 367.592727 328.8066 
L 368.146116 312.237236 
L 368.699504 324.657297 
L 369.252893 323.682628 
L 369.806281 334.125505 
L 370.359669 329.252163 
L 370.913058 345.487355 
L 371.466446 345.487355 
L 372.019835 349.24679 
L 372.573223 386.952537 
L 373.126612 382.385519 
L 373.68 380.352639 
L 374.233388 395.613162 
L 374.786777 394.833427 
L 375.340165 385.170286 
L 375.893554 385.393067 
L 377.553719 397.089089 
L 378.660496 416.777392 
L 379.213884 410.066103 
L 379.767273 406.752231 
L 380.320661 424.797521 
L 380.87405 401.210544 
L 381.427438 400.653591 
L 381.980826 385.365219 
L 382.534215 381.800717 
L 383.087603 363.978208 
L 383.640992 352.699901 
L 384.19438 355.930231 
L 384.747769 340.474774 
L 385.301157 354.677086 
L 385.854545 397.840976 
L 386.407934 406.947164 
L 386.961322 402.268756 
L 387.514711 417.390041 
L 388.068099 413.407824 
L 388.621488 401.433325 
L 389.174876 381.745022 
L 389.728264 385.560153 
L 390.281653 393.830911 
L 390.835041 388.957569 
L 391.38843 388.317072 
L 391.941818 391.436012 
L 392.495207 383.08171 
L 393.048595 385.253829 
L 393.601983 374.978038 
L 394.155372 405.415542 
L 394.70876 414.466035 
L 395.262149 419.534311 
L 395.815537 429.336692 
L 396.368926 430.088579 
L 396.922314 436.075828 
L 397.475702 430.060731 
L 398.029091 418.782424 
L 398.582479 411.263553 
L 399.135868 406.000343 
L 399.689256 395.585315 
L 400.242645 401.516868 
L 400.796033 398.202996 
L 401.349421 402.324451 
L 401.90281 397.005546 
L 402.456198 386.005716 
L 403.009587 378.570388 
L 403.562975 368.712312 
L 404.116364 363.504798 
L 404.669752 351.64169 
L 405.22314 361.360527 
L 405.776529 350.416392 
L 406.329917 357.656787 
L 406.883306 353.980894 
L 407.436694 375.479296 
L 407.990083 367.681948 
L 408.543471 374.031217 
L 409.650248 360.998507 
L 410.203636 365.593373 
L 410.757025 374.755257 
L 411.310413 410.066103 
L 411.863802 411.876202 
L 412.41719 417.64067 
L 412.970579 409.592693 
L 413.523967 406.752231 
L 414.077355 408.172462 
L 414.630744 406.919317 
L 415.184132 403.382662 
L 415.737521 410.233189 
L 416.290909 420.50898 
L 416.844298 393.524587 
L 417.397686 400.096637 
L 417.951074 395.251142 
L 418.504463 392.354985 
L 419.057851 393.691673 
L 419.61124 394.499255 
L 420.164628 395.557467 
L 420.718017 380.352639 
L 421.271405 361.276984 
L 421.824793 350.527783 
L 422.378182 348.634141 
L 422.93157 338.553285 
L 423.484959 339.750734 
L 424.038347 342.062091 
L 425.145124 321.844682 
L 425.698512 326.885111 
L 426.251901 318.586505 
L 427.358678 344.512686 
L 427.912066 336.130537 
L 428.465455 317.305512 
L 429.018843 320.480146 
L 429.572231 312.766341 
L 430.12562 310.427137 
L 430.679008 312.822037 
L 431.232397 317.946008 
L 431.785785 307.725913 
L 432.339174 317.751074 
L 432.892562 324.072496 
L 433.44595 312.710646 
L 433.999339 316.358691 
L 434.552727 319.00422 
L 435.106116 313.629619 
L 435.659504 323.097827 
L 436.212893 324.462363 
L 436.766281 317.946008 
L 437.319669 328.08256 
L 437.873058 322.34594 
L 438.426446 327.887627 
L 438.979835 343.203846 
L 439.533223 349.553115 
L 440.086612 327.219283 
L 440.64 331.424281 
L 441.193388 320.396603 
L 441.746777 305.163927 
L 442.300165 303.047504 
L 442.853554 304.189259 
L 443.406942 296.865321 
L 443.960331 299.120983 
L 444.513719 285.1693 
L 445.067107 282.495923 
L 445.620496 274.726423 
L 446.173884 272.387219 
L 446.727273 268.878412 
L 447.280661 252.476134 
L 447.83405 242.395277 
L 448.387438 224.294291 
L 448.940826 220.952571 
L 449.494215 199.816188 
L 450.047603 212.34764 
L 450.600992 203.157909 
L 451.15438 211.372972 
L 451.707769 232.20303 
L 452.261157 236.770048 
L 452.814545 239.220643 
L 453.367934 246.934447 
L 453.921322 244.818024 
L 455.028099 241.476304 
L 455.581488 228.13727 
L 456.134876 228.694223 
L 456.688264 239.192795 
L 457.795041 214.714692 
L 458.34843 206.221153 
L 458.901818 226.5778 
L 459.455207 234.514386 
L 460.008595 223.124689 
L 460.561983 229.418262 
L 461.115372 214.686845 
L 461.66876 239.916834 
L 462.222149 227.441078 
L 462.775537 223.542404 
L 463.328926 199.537712 
L 463.882314 196.864335 
L 464.435702 209.11731 
L 464.989091 179.069674 
L 465.542479 211.790687 
L 466.095868 209.869198 
L 466.649256 225.937304 
L 467.202645 226.549952 
L 467.756033 216.77542 
L 468.309421 249.496433 
L 468.86281 259.21527 
L 469.416198 240.557331 
L 469.969587 244.288919 
L 470.522975 251.028055 
L 471.076364 259.911462 
L 471.629752 263.16964 
L 472.736529 278.012448 
L 473.289917 263.921527 
L 473.843306 277.260561 
L 474.396694 272.999867 
L 474.950083 278.040296 
L 476.05686 285.419929 
L 476.610248 302.156379 
L 477.163636 304.941146 
L 477.717025 295.695719 
L 478.270413 298.814658 
L 478.823802 304.439888 
L 479.37719 307.001874 
L 479.930579 296.558997 
L 480.483967 265.063281 
L 481.037355 262.584838 
L 481.590744 265.258215 
L 482.144132 250.777426 
L 482.697521 239.749748 
L 483.250909 253.255869 
L 483.804298 273.835298 
L 484.357686 289.819861 
L 484.911074 283.025029 
L 485.464463 281.771884 
L 486.57124 302.518399 
L 487.124628 303.994325 
L 487.678017 310.092965 
L 488.231405 282.802248 
L 488.784793 285.976882 
L 489.338182 292.827409 
L 489.89157 277.733971 
L 490.444959 285.865491 
L 490.998347 291.490721 
L 491.551736 284.166783 
L 492.105124 287.842676 
L 492.658512 289.207212 
L 493.211901 292.57678 
L 494.318678 307.28035 
L 494.872066 300.541214 
L 495.425455 301.877902 
L 495.978843 328.054713 
L 497.08562 306.249986 
L 497.639008 309.953727 
L 498.192397 315.022003 
L 498.745785 303.353829 
L 499.299174 300.819691 
L 499.852562 308.060085 
L 500.40595 301.989293 
L 500.959339 306.584158 
L 501.512727 305.943662 
L 502.066116 292.688171 
L 502.619504 291.657807 
L 503.172893 283.776916 
L 503.726281 273.723907 
L 504.279669 275.422615 
L 504.833058 251.417922 
L 505.386446 237.93965 
L 505.939835 234.625777 
L 506.493223 227.190449 
L 507.046612 233.400479 
L 507.6 228.917004 
L 508.153388 222.205716 
L 508.706777 223.458861 
L 509.813554 250.833121 
L 510.366942 244.595243 
L 510.920331 255.316596 
L 511.473719 262.167123 
L 512.027107 281.10354 
L 512.580496 273.417582 
L 513.133884 257.655801 
L 513.687273 261.108912 
L 514.240661 256.34696 
L 514.79405 254.369776 
L 515.347438 257.238086 
L 515.900826 243.20286 
L 516.454215 247.185077 
L 517.007603 254.954577 
L 517.560992 247.296467 
L 518.667769 280.184566 
L 519.221157 277.817514 
L 519.774545 274.253013 
L 520.327934 282.802248 
L 520.881322 301.07032 
L 521.434711 296.865321 
L 521.988099 295.751414 
L 522.541488 297.060255 
L 523.094876 300.569062 
L 523.648264 298.452639 
L 524.201653 297.450122 
L 524.755041 300.457671 
L 525.861818 329.725573 
L 526.415207 302.37916 
L 526.968595 296.057739 
L 527.521983 303.548762 
L 528.62876 290.126185 
L 529.182149 298.369096 
L 529.735537 309.703098 
L 530.288926 305.999357 
L 530.842314 293.272972 
L 531.395702 265.230367 
L 531.949091 262.891163 
L 532.502479 265.369606 
L 533.055868 262.473448 
L 533.609256 254.759643 
L 534.162645 258.129211 
L 534.716033 249.301499 
L 535.269421 237.354849 
L 535.82281 261.97219 
L 536.376198 253.534345 
L 536.929587 259.521595 
L 537.482975 259.521595 
L 538.036364 256.625437 
L 538.589752 272.220133 
L 539.14314 265.954407 
L 539.696529 262.640534 
L 540.249917 269.268279 
L 540.803306 284.417412 
L 541.356694 281.131387 
L 541.910083 275.784634 
L 542.463471 269.184736 
L 543.01686 265.508844 
L 543.570248 265.843016 
L 544.123636 284.306022 
L 544.677025 273.946688 
L 545.230413 276.620065 
L 545.783802 280.045328 
L 546.890579 223.70949 
L 547.443967 219.003234 
L 547.997355 215.633665 
L 548.550744 215.828599 
L 549.104132 216.608334 
L 549.657521 210.064131 
L 550.210909 235.266273 
L 550.764298 241.615542 
L 551.317686 222.985451 
L 551.871074 225.352503 
L 552.424463 221.231047 
L 552.977851 224.739854 
L 553.53124 231.980248 
L 554.084628 227.830945 
L 555.191405 193.021357 
L 556.298182 200.094665 
L 556.85157 197.337746 
L 557.404959 197.476984 
L 557.958347 204.355359 
L 558.511736 200.400989 
L 559.065124 199.147844 
L 559.618512 190.041656 
L 560.171901 201.208572 
L 560.725289 198.590891 
L 561.278678 206.750258 
L 561.832066 197.783308 
L 562.385455 201.570592 
L 562.938843 202.600955 
L 563.492231 200.902248 
L 564.04562 207.975556 
L 564.599008 203.297147 
L 565.152397 204.856617 
L 565.705785 208.003404 
L 566.259174 153.533359 
L 566.812562 156.847232 
L 567.36595 147.211938 
L 567.919339 144.232237 
L 568.472727 147.434719 
L 569.026116 148.242302 
L 569.579504 155.789021 
L 570.132893 147.796739 
L 570.686281 151.194155 
L 571.239669 162.862329 
L 571.793058 142.617072 
L 572.899835 147.90813 
L 574.006612 151.723261 
L 574.56 146.738528 
L 575.113388 150.943526 
L 575.666777 162.6117 
L 576.220165 146.432203 
L 576.773554 147.601806 
L 577.326942 139.024723 
L 577.880331 140.667735 
L 578.433719 165.981268 
L 578.987107 174.502656 
L 579.540496 169.350836 
L 580.093884 157.571272 
L 580.647273 162.444614 
L 581.200661 162.862329 
L 581.75405 162.862329 
L 582.307438 189.456855 
L 582.860826 188.454339 
L 583.414215 177.259575 
L 583.967603 207.529993 
L 584.520992 201.626287 
L 585.07438 201.626287 
L 585.627769 192.575794 
L 586.181157 198.173176 
L 586.734545 201.904764 
L 587.287934 198.980758 
L 587.841322 188.120167 
L 588.394711 208.448966 
L 588.948099 208.532509 
L 589.501488 201.069334 
L 590.054876 204.995855 
L 590.608264 217.24883 
L 591.161653 219.977902 
L 591.715041 235.54475 
L 592.26843 222.790517 
L 592.821818 215.550122 
L 593.375207 224.962635 
L 593.928595 225.519589 
L 594.481983 237.967497 
L 595.035372 233.289089 
L 596.142149 255.87355 
L 596.695537 238.218126 
L 597.248926 228.666375 
L 597.802314 230.532169 
L 598.355702 225.408198 
L 598.909091 225.519589 
L 600.015868 195.054237 
L 600.569256 194.218807 
L 601.122645 202.378174 
L 601.676033 203.909796 
L 602.229421 195.97321 
L 602.78281 206.471782 
L 603.336198 198.618739 
L 603.889587 200.373142 
L 604.442975 198.897215 
L 604.996364 224.349986 
L 605.549752 223.848728 
L 606.10314 219.003234 
L 606.656529 193.21629 
L 607.209917 179.515236 
L 608.316694 191.740364 
L 608.870083 157.070014 
L 609.423471 152.224519 
L 609.97686 156.986471 
L 610.530248 145.930945 
L 611.083636 169.07236 
L 611.637025 173.97355 
L 612.190413 167.373652 
L 612.743802 167.095175 
L 613.29719 167.011632 
L 613.850579 174.836828 
L 614.403967 173.97355 
L 614.957355 164.950904 
L 615.510744 160.10541 
L 616.064132 175.616562 
L 616.617521 197.476984 
L 617.170909 179.23676 
L 617.724298 192.798575 
L 618.277686 108.81 
L 618.831074 178.540568 
L 619.384463 206.165457 
L 619.937851 221.008266 
L 620.49124 216.858963 
L 621.044628 218.362737 
L 621.598017 216.357705 
L 622.151405 208.059099 
L 622.704793 210.509694 
L 623.81157 235.572598 
L 624.364959 209.507178 
L 624.918347 215.912142 
L 626.025124 223.932271 
L 626.578512 241.949714 
L 627.131901 168.877426 
L 627.685289 174.976066 
L 628.238678 158.323159 
L 628.792066 166.009116 
L 629.345455 192.520099 
L 629.898843 188.036624 
L 630.452231 197.950394 
L 631.00562 188.983444 
L 631.559008 206.555325 
L 632.112397 206.193305 
L 632.665785 216.942506 
L 633.219174 193.439072 
L 633.772562 203.074366 
L 634.32595 198.952911 
L 634.879339 230.392931 
L 635.432727 241.754781 
L 635.986116 258.37984 
L 636.539504 257.126695 
L 637.092893 257.071 
L 637.646281 259.967157 
L 638.199669 239.192795 
L 638.753058 237.57763 
L 639.306446 252.64322 
L 639.859835 255.87355 
L 640.413223 257.460867 
L 640.966612 257.18239 
L 641.52 298.870354 
L 642.073388 297.589361 
L 642.626777 277.455495 
L 643.180165 279.18205 
L 643.733554 269.908776 
L 644.286942 249.579976 
L 644.840331 258.351993 
L 645.393719 247.212924 
L 645.947107 241.559847 
L 646.500496 237.354849 
L 647.053884 238.106736 
L 647.607273 251.167293 
L 648.160661 252.253353 
L 648.71405 246.823057 
L 649.267438 268.015134 
L 649.820826 213.405852 
L 650.374215 226.522105 
L 650.927603 262.668382 
L 651.480992 250.387559 
L 652.03438 258.769708 
L 652.587769 269.546756 
L 653.141157 277.51119 
L 653.694545 277.539038 
L 654.247934 243.815508 
L 654.801322 247.992659 
L 655.354711 240.891503 
L 655.908099 239.944682 
L 656.461488 225.129721 
L 657.568264 240.251006 
L 658.121653 248.410374 
L 658.675041 253.450802 
L 659.22843 248.688851 
L 659.781818 256.096331 
L 660.335207 224.294291 
L 660.888595 228.833461 
L 661.441983 263.141792 
L 662.54876 261.888647 
L 663.102149 244.093985 
L 663.655537 258.881098 
L 664.208926 252.615372 
L 664.762314 273.779602 
L 665.315702 247.296467 
L 665.869091 270.716358 
L 666.422479 284.946518 
L 666.975868 282.078208 
L 667.529256 284.612346 
L 668.082645 245.124349 
L 668.636033 248.911632 
L 669.189421 172.553319 
L 669.74281 173.360901 
L 670.296198 162.890177 
L 670.849587 163.224349 
L 671.402975 166.259745 
L 671.956364 180.127885 
L 672.509752 168.041996 
L 673.06314 173.834311 
L 673.616529 176.396297 
L 674.169917 184.165797 
L 674.723306 179.626627 
L 675.276694 165.145838 
L 675.830083 130.33625 
L 676.383471 131.756481 
L 677.490248 175.449476 
L 678.043636 163.642064 
L 678.597025 196.390925 
L 679.150413 187.089803 
L 679.703802 183.608844 
L 680.25719 172.052061 
L 680.810579 166.67746 
L 681.363967 146.209422 
L 681.917355 157.571272 
L 682.470744 201.514896 
L 683.024132 156.15104 
L 683.577521 204.57814 
L 684.130909 202.628803 
L 684.684298 113.182084 
L 685.237686 161.107926 
L 685.791074 137.158929 
L 686.344463 179.208912 
L 686.897851 203.213604 
L 687.45124 248.076202 
L 688.004628 253.673584 
L 688.558017 277.455495 
L 689.111405 250.749578 
L 689.664793 251.334379 
L 690.218182 245.736998 
L 690.77157 291.713502 
L 691.878347 283.526287 
L 692.985124 365.732611 
L 693.538512 377.651414 
L 694.091901 382.97032 
L 694.645289 377.734957 
L 695.198678 384.167769 
L 695.752066 376.98307 
L 696.305455 397.451108 
L 696.858843 399.985247 
L 697.412231 394.44356 
L 697.96562 407.309184 
L 698.519008 410.567361 
L 699.072397 417.807756 
L 699.625785 420.703914 
L 700.179174 409.03574 
L 700.732562 424.992455 
L 701.28595 422.096297 
L 702.392727 435.964437 
L 702.946116 425.020303 
L 703.499504 429.503778 
L 704.052893 431.0354 
L 704.606281 440.47576 
L 705.159669 433.040432 
L 705.713058 436.465695 
L 706.266446 443.511156 
L 706.819835 441.199799 
L 707.373223 429.865797 
L 707.926612 432.455631 
L 708.48 432.511326 
L 709.033388 429.754407 
L 709.586777 441.283342 
L 710.140165 425.075998 
L 710.693554 427.944308 
L 711.246942 419.534311 
L 711.800331 403.744682 
L 712.353719 412.878718 
L 712.907107 427.693679 
L 713.460496 433.54169 
L 714.013884 438.053013 
L 714.567273 435.323941 
L 715.120661 444.485825 
L 715.67405 425.911428 
L 716.227438 429.531625 
L 717.334215 452.67304 
L 717.887603 478.125811 
L 718.440992 491.631931 
L 718.99438 490.57372 
L 719.547769 491.381302 
L 720.101157 488.652231 
L 720.654545 493.887593 
L 721.207934 509.900003 
L 721.761322 507.254475 
L 722.314711 515.998643 
L 722.868099 512.044274 
L 723.421488 511.069606 
L 723.974876 501.545702 
L 724.528264 505.555767 
L 725.081653 504.469708 
L 725.635041 502.993781 
L 726.18843 500.3761 
L 726.741818 500.988749 
L 727.295207 513.77083 
L 727.848595 493.219249 
L 728.401983 502.102656 
L 728.955372 492.996467 
L 729.50876 496.254645 
L 730.062149 478.84985 
L 730.615537 495.363519 
L 731.168926 480.994121 
L 731.722314 504.608946 
L 732.275702 496.950836 
L 732.829091 505.611462 
L 733.382479 524.40864 
L 733.935868 519.953013 
L 734.489256 538.610952 
L 735.042645 533.821153 
L 735.596033 534.489497 
L 736.149421 523.294733 
L 736.70281 519.340364 
L 737.256198 513.854373 
L 737.809587 531.008538 
L 738.916364 583.139378 
L 739.469752 590.129143 
L 740.02314 600.21 
L 740.576529 580.076134 
L 741.129917 571.137032 
L 742.236694 482.330809 
L 742.790083 460.860255 
L 743.343471 455.875522 
L 743.89686 453.118603 
L 744.450248 447.298439 
L 745.003636 443.678242 
L 745.557025 447.77185 
L 746.110413 449.387015 
L 746.663802 461.890619 
L 747.21719 469.743662 
L 747.770579 434.154339 
L 748.323967 431.397419 
L 748.877355 421.455801 
L 749.430744 402.380146 
L 749.984132 412.01544 
L 750.537521 417.891299 
L 751.090909 418.11408 
L 751.644298 421.427953 
L 752.197686 422.597555 
L 752.751074 434.182186 
L 753.857851 440.782084 
L 754.41124 437.997317 
L 754.964628 432.761955 
L 755.518017 435.351789 
L 756.071405 431.842982 
L 756.624793 437.858079 
L 757.178182 438.999833 
L 757.73157 435.964437 
L 758.284959 426.440534 
L 758.838347 426.997487 
L 759.391736 441.060561 
L 759.945124 441.868143 
L 760.498512 425.215236 
L 761.051901 423.627919 
L 761.605289 431.536658 
L 762.158678 431.564505 
L 762.712066 432.121459 
L 763.265455 432.121459 
L 763.818843 424.741826 
L 764.372231 428.473414 
L 764.92562 427.108878 
L 765.479008 433.959405 
L 766.032397 426.886097 
L 766.585785 423.8507 
L 767.139174 428.556957 
L 768.24595 415.830571 
L 768.799339 421.789973 
L 769.352727 422.569708 
L 770.459504 428.974672 
L 771.012893 426.746858 
L 771.566281 428.362023 
L 772.119669 427.053183 
L 772.673058 430.868313 
L 773.226446 440.726389 
L 773.779835 448.384498 
L 774.333223 450.333835 
L 774.886612 453.257841 
L 775.44 452.617344 
L 775.993388 451.47559 
L 776.546777 454.288205 
L 777.100165 456.042608 
L 777.653554 458.827375 
L 778.206942 462.920983 
L 778.760331 464.591843 
L 779.313719 465.872836 
L 779.867107 452.979364 
L 780.420496 456.961581 
L 780.973884 447.716154 
L 781.527273 455.569198 
L 782.080661 452.951516 
L 782.63405 451.670524 
L 783.187438 457.072972 
L 783.740826 453.369232 
L 784.294215 457.797011 
L 784.847603 454.622377 
L 785.400992 452.812278 
L 785.95438 451.419895 
L 786.507769 451.336352 
L 787.061157 454.622377 
L 787.614545 456.070456 
L 788.167934 453.842642 
L 788.721322 457.045124 
L 789.274711 463.199459 
L 789.828099 460.136216 
L 790.381488 459.551414 
L 790.934876 454.3439 
L 791.488264 437.96947 
L 792.041653 438.8049 
L 792.595041 424.93676 
L 793.14843 425.326627 
L 793.701818 424.908912 
L 794.255207 430.478446 
L 794.808595 431.480962 
L 795.915372 428.835434 
L 796.46876 432.232849 
L 797.022149 438.470728 
L 797.575537 440.698541 
L 798.128926 437.858079 
L 798.682314 438.526423 
L 799.235702 437.579602 
L 799.789091 442.731421 
L 800.342479 443.928871 
L 800.895868 434.85053 
L 801.449256 439.473244 
L 802.002645 437.858079 
L 802.556033 432.065763 
L 803.109421 435.129007 
L 803.66281 439.584634 
L 804.216198 437.217582 
L 804.769587 435.797351 
L 805.322975 435.602418 
L 805.876364 446.21238 
L 806.429752 454.678072 
L 806.98314 436.465695 
L 807.536529 429.225301 
L 808.089917 424.741826 
L 808.643306 409.286369 
L 809.196694 406.975012 
L 809.750083 430.979704 
L 810.85686 429.030367 
L 811.410248 422.876032 
L 811.963636 426.050666 
L 812.517025 438.777052 
L 813.070413 421.845668 
L 813.623802 422.040602 
L 814.17719 421.595039 
L 814.730579 422.124145 
L 815.283967 423.460833 
L 816.390744 383.694359 
L 816.944132 393.747368 
L 817.497521 392.327137 
L 818.050909 417.250802 
L 818.604298 417.779908 
L 819.157686 417.919147 
L 819.711074 422.514012 
L 820.264463 436.77202 
L 820.817851 443.121289 
L 821.37124 453.50847 
L 821.924628 450.417378 
L 822.478017 450.500921 
L 823.031405 456.293237 
L 823.584793 451.224961 
L 824.138182 448.662975 
L 824.69157 446.825029 
L 825.244959 455.040092 
L 825.798347 452.645192 
L 826.351736 456.543866 
L 826.905124 456.404628 
L 827.458512 449.164233 
L 828.011901 470.077834 
L 828.565289 471.525913 
L 829.118678 474.951176 
L 829.672066 477.457467 
L 830.225455 471.191741 
L 830.778843 466.931047 
L 831.332231 470.217072 
L 831.88562 471.414522 
L 832.439008 471.024655 
L 832.992397 465.037406 
L 833.545785 469.214556 
L 834.099174 471.024655 
L 834.652562 477.039752 
L 835.20595 476.956209 
L 835.759339 483.27763 
L 836.866116 500.153319 
L 837.419504 503.745668 
L 837.972893 506.251959 
L 838.526281 504.024145 
L 839.079669 506.224111 
L 839.633058 508.925335 
L 840.186446 510.289871 
L 840.739835 510.289871 
L 841.293223 500.960901 
L 841.846612 503.689973 
L 842.4 504.943118 
L 842.953388 500.821663 
L 843.506777 502.130503 
L 844.060165 502.130503 
L 844.613554 501.963417 
L 845.166942 499.819147 
L 845.720331 502.241894 
L 846.273719 496.616664 
L 846.827107 511.487321 
L 847.380496 510.512652 
L 847.933884 515.07967 
L 848.487273 515.80371 
L 849.040661 513.325267 
L 849.59405 517.196093 
L 850.147438 517.558113 
L 850.700826 520.370728 
L 851.254215 509.454441 
L 852.360992 516.137882 
L 852.91438 516.75053 
L 853.467769 517.558113 
L 854.021157 522.37576 
L 855.127934 526.719997 
L 855.681322 529.254135 
L 856.234711 529.254135 
L 856.788099 522.709932 
L 857.341488 521.094767 
L 857.894876 525.661785 
L 858.448264 526.747844 
L 859.001653 525.773176 
L 859.555041 527.360493 
L 860.10843 523.155495 
L 860.661818 515.553081 
L 861.215207 515.553081 
L 861.768595 516.527749 
L 862.321983 516.165729 
L 862.875372 516.63914 
L 863.42876 514.160697 
L 863.982149 512.378446 
L 864.535537 512.350598 
L 865.088926 510.930367 
L 865.642314 520.983376 
L 866.195702 517.864437 
L 866.749091 510.763281 
L 867.302479 512.183512 
L 867.855868 507.867123 
L 868.409256 513.687287 
L 868.962645 512.656923 
L 869.516033 516.137882 
L 870.069421 511.01391 
L 871.729587 512.68477 
L 872.282975 511.01391 
L 872.836364 511.348082 
L 873.389752 514.021459 
L 873.94314 503.522887 
L 874.496529 504.44186 
L 875.049917 504.302622 
L 875.603306 507.922819 
L 876.156694 507.978514 
L 876.710083 507.477256 
L 877.263471 508.619011 
L 877.81686 507.560799 
L 878.370248 507.254475 
L 878.923636 511.069606 
L 879.477025 502.019113 
L 880.583802 494.528089 
L 881.13719 498.983716 
L 881.690579 498.148286 
L 882.243967 501.462159 
L 882.797355 499.958385 
L 883.350744 501.350768 
L 883.904132 501.295073 
L 884.457521 505.555767 
L 885.010909 497.619181 
L 885.564298 498.81663 
L 886.117686 502.687457 
L 886.671074 500.598881 
L 887.224463 509.203812 
L 887.777851 507.950666 
L 888.33124 507.393713 
L 888.884628 507.393713 
L 889.438017 503.188715 
L 889.991405 492.662295 
L 890.544793 488.986403 
L 891.098182 487.148456 
L 891.65157 487.204152 
L 892.204959 484.864947 
L 892.758347 488.011734 
L 893.311736 477.54101 
L 893.865124 482.108028 
L 894.418512 483.389021 
L 895.525289 495.614148 
L 896.078678 492.161037 
L 896.632066 491.102826 
L 897.185455 489.710442 
L 897.738843 487.788953 
L 898.292231 490.462329 
L 898.84562 490.796501 
L 899.399008 487.037066 
L 900.505785 484.391537 
L 901.059174 480.465015 
L 901.612562 484.502928 
L 902.719339 489.01425 
L 903.272727 490.852197 
L 903.826116 501.963417 
L 904.379504 499.735604 
L 904.932893 501.267225 
L 905.486281 501.267225 
L 906.039669 499.206498 
L 906.593058 495.391367 
L 907.146446 492.550904 
L 907.699835 493.052163 
L 908.253223 491.214216 
L 908.806612 492.049646 
L 909.36 492.411666 
L 909.913388 489.84968 
L 910.466777 490.462329 
L 911.020165 489.264879 
L 911.573554 488.429449 
L 912.126942 488.123125 
L 912.680331 492.24458 
L 914.340496 501.68494 
L 914.893884 506.892455 
L 915.447273 515.330299 
L 916.000661 518.616324 
L 916.55405 513.965763 
L 917.107438 515.385995 
L 917.660826 518.644172 
L 918.214215 517.029007 
L 918.767603 520.426423 
L 919.320992 514.355631 
L 919.87438 514.467021 
L 920.427769 520.677052 
L 920.981157 521.317548 
L 921.534545 518.78341 
L 922.087934 523.990925 
L 923.194711 520.34288 
L 923.748099 524.269402 
L 924.301488 532.122445 
L 924.854876 526.970626 
L 925.408264 529.114896 
L 925.961653 535.826185 
L 926.515041 532.456617 
L 927.06843 530.173108 
L 927.621818 531.398405 
L 928.175207 524.185859 
L 928.728595 530.674366 
L 929.281983 526.942778 
L 929.835372 527.527579 
L 930.38876 530.841452 
L 930.942149 535.937576 
L 931.495537 538.805886 
L 932.048926 537.859065 
L 932.602314 534.266715 
L 933.155702 526.385825 
L 933.709091 522.320065 
L 934.262479 524.241554 
L 934.815868 520.147946 
L 935.369256 517.11255 
L 935.922645 516.527749 
L 936.476033 530.312346 
L 937.029421 525.299765 
L 937.58281 525.856719 
L 938.136198 518.67202 
L 938.689587 520.621357 
L 939.242975 519.340364 
L 939.796364 516.082186 
L 940.349752 521.818807 
L 940.90314 520.064403 
L 941.456529 521.345396 
L 942.009917 519.702384 
L 942.563306 518.644172 
L 943.116694 517.920133 
L 943.670083 520.482118 
L 944.223471 521.289701 
L 944.77686 529.087049 
L 945.330248 527.026321 
L 945.883636 529.003506 
L 946.437025 520.092251 
L 946.990413 521.735264 
L 947.543802 519.50745 
L 948.09719 518.866953 
L 948.650579 524.04662 
L 949.203967 518.337848 
L 949.757355 530.089565 
L 950.864132 524.436488 
L 951.417521 528.669334 
L 951.970909 528.168075 
L 952.524298 529.67185 
L 953.077686 530.368041 
L 953.631074 533.01357 
L 954.184463 531.955359 
L 954.737851 534.21102 
L 955.29124 531.370558 
L 955.844628 530.006022 
L 956.398017 533.904696 
L 956.951405 533.124961 
L 957.504793 533.431285 
L 958.058182 533.124961 
L 958.61157 532.038902 
L 959.164959 534.127477 
L 959.718347 533.152809 
L 960.271736 522.654237 
L 960.825124 521.623873 
L 961.378512 518.755563 
L 962.485289 514.24424 
L 963.038678 516.054339 
L 963.592066 523.071952 
L 964.145455 517.279636 
L 964.698843 516.834073 
L 965.252231 519.50745 
L 965.80562 520.593509 
L 966.359008 518.31 
L 966.912397 525.522547 
L 967.465785 508.841792 
L 968.019174 510.818977 
L 968.572562 502.102656 
L 969.12595 497.452095 
L 969.679339 498.287525 
L 970.232727 499.930537 
L 970.786116 500.626729 
L 971.339504 497.452095 
L 971.892893 499.596365 
L 972.446281 497.730571 
L 972.999669 494.75087 
L 973.553058 495.363519 
L 974.106446 496.588817 
L 974.659835 496.533121 
L 975.213223 493.91544 
L 975.766612 495.83693 
L 976.32 498.482458 
L 976.873388 495.029347 
L 977.426777 499.122955 
L 977.980165 494.333155 
L 978.533554 493.135706 
L 979.086942 487.70541 
L 979.640331 487.621867 
L 980.193719 483.110544 
L 980.747107 487.566171 
L 981.300496 480.0473 
L 981.853884 478.599221 
L 982.407273 480.548558 
L 982.960661 479.768824 
L 983.51405 479.768824 
L 984.067438 481.272598 
L 984.620826 487.064913 
L 985.174215 476.956209 
L 985.727603 481.328293 
L 986.83438 475.50813 
L 987.387769 473.336012 
L 987.941157 469.687967 
L 988.494545 473.391707 
L 989.047934 473.865117 
L 989.601322 473.47525 
L 990.154711 470.217072 
L 990.708099 469.103166 
L 991.261488 447.326287 
L 991.814876 454.873006 
L 992.368264 457.657773 
L 992.921653 455.959065 
L 993.475041 461.834923 
L 994.02843 459.774196 
L 994.581818 463.143764 
L 995.135207 467.348762 
L 995.688595 470.467701 
L 996.241983 470.189225 
L 996.795372 469.715814 
L 997.34876 467.320915 
L 997.902149 472.082866 
L 998.455537 472.082866 
L 999.562314 463.338698 
L 1000.115702 471.191741 
L 1000.669091 466.457637 
L 1001.775868 469.799357 
L 1002.329256 469.075318 
L 1003.436033 474.979024 
L 1003.989421 464.5083 
L 1004.54281 461.528599 
L 1005.096198 461.333665 
L 1005.649587 467.460153 
L 1006.202975 469.325947 
L 1007.309752 468.017106 
L 1008.416529 472.027171 
L 1008.969917 478.933393 
L 1009.523306 471.303132 
L 1010.076694 468.629755 
L 1010.630083 468.796841 
L 1011.183471 468.490517 
L 1011.73686 462.893135 
L 1012.290248 466.123465 
L 1012.843636 450.083206 
L 1013.397025 447.966783 
L 1013.950413 447.716154 
L 1014.503802 460.553931 
L 1015.05719 463.617174 
L 1015.610579 464.14628 
L 1016.163967 469.298099 
L 1016.717355 461.083036 
L 1017.270744 465.872836 
L 1017.824132 467.73863 
L 1018.377521 472.389191 
L 1018.930909 472.584124 
L 1019.484298 475.396739 
L 1020.037686 471.553761 
L 1020.591074 463.756413 
L 1021.144463 475.006872 
L 1021.697851 475.424587 
L 1022.25124 467.404458 
L 1022.804628 463.422241 
L 1023.358017 466.262703 
L 1023.911405 471.692999 
L 1024.464793 470.801874 
L 1025.018182 477.318228 
L 1025.57157 473.419555 
L 1026.124959 474.895481 
L 1026.678347 470.71833 
L 1027.231736 467.515848 
L 1027.785124 465.009558 
L 1028.338512 467.543696 
L 1028.891901 465.538664 
L 1029.445289 468.546212 
L 1029.998678 468.713298 
L 1030.552066 460.637474 
L 1031.105455 470.996807 
L 1031.658843 469.493033 
L 1032.212231 474.78409 
L 1032.76562 471.136046 
L 1033.319008 470.384158 
L 1033.872397 467.153829 
L 1034.425785 468.991775 
L 1034.979174 466.123465 
L 1035.532562 465.288035 
L 1036.08595 469.158861 
L 1036.639339 470.272768 
L 1037.192727 462.642506 
L 1038.299504 458.019793 
L 1038.852893 467.766477 
L 1039.406281 466.596875 
L 1039.959669 478.599221 
L 1040.513058 472.973992 
L 1041.066446 475.842302 
L 1041.619835 466.318399 
L 1042.173223 463.78426 
L 1042.726612 462.726049 
L 1043.28 450.305988 
L 1043.833388 447.911088 
L 1044.386777 453.007212 
L 1044.940165 451.085723 
L 1045.493554 442.341554 
L 1046.046942 437.496059 
L 1046.600331 441.004866 
L 1047.153719 457.045124 
L 1047.707107 454.928701 
L 1048.260496 453.619861 
L 1048.813884 455.90337 
L 1049.367273 449.999663 
L 1049.920661 449.359167 
L 1050.47405 449.359167 
L 1051.027438 450.695855 
L 1051.580826 455.569198 
L 1052.134215 453.647708 
L 1052.687603 454.3439 
L 1053.79438 446.685791 
L 1054.347769 447.131353 
L 1054.901157 447.187049 
L 1056.007934 450.584464 
L 1056.561322 456.766647 
L 1058.774876 475.814454 
L 1059.328264 474.811938 
L 1059.881653 478.209354 
L 1060.435041 476.761275 
L 1061.541818 484.307994 
L 1062.095207 486.118092 
L 1062.648595 491.715474 
L 1063.201983 488.457297 
L 1063.755372 487.399085 
L 1064.30876 487.983886 
L 1064.862149 483.723193 
L 1065.415537 480.576406 
L 1065.968926 472.082866 
L 1066.522314 471.665151 
L 1067.629091 466.847504 
L 1068.182479 459.579262 
L 1068.735868 454.065423 
L 1069.289256 454.009728 
L 1069.842645 454.845158 
L 1070.396033 451.503438 
L 1070.949421 455.736284 
L 1071.50281 459.022309 
L 1072.056198 444.235196 
L 1072.609587 452.617344 
L 1073.162975 455.429959 
L 1073.716364 452.589497 
L 1074.269752 453.313536 
L 1074.82314 458.214726 
L 1075.376529 455.318569 
L 1075.929917 450.779398 
L 1076.483306 456.293237 
L 1077.036694 448.078174 
L 1077.590083 459.24509 
L 1078.143471 450.807246 
L 1078.69686 449.721187 
L 1079.250248 463.171612 
L 1079.803636 458.88307 
L 1080.357025 461.528599 
L 1080.910413 459.885587 
L 1081.463802 456.710952 
L 1082.01719 455.569198 
L 1082.570579 452.533801 
L 1083.123967 452.450258 
L 1083.677355 447.521221 
L 1084.230744 454.70592 
L 1084.784132 453.480622 
L 1085.337521 444.346586 
L 1085.890909 443.176984 
L 1086.997686 450.918637 
L 1087.551074 448.857909 
L 1088.104463 455.429959 
L 1089.21124 464.703234 
L 1089.764628 465.093101 
L 1090.318017 464.369062 
L 1090.871405 464.257671 
L 1091.424793 463.645022 
L 1091.978182 458.88307 
L 1092.53157 459.440024 
L 1093.084959 457.880554 
L 1093.638347 450.528769 
L 1094.191736 455.067939 
L 1094.745124 454.121119 
L 1095.298512 445.321255 
L 1095.851901 446.852877 
L 1096.405289 450.27814 
L 1096.958678 435.101159 
L 1098.065455 430.478446 
L 1098.618843 429.83795 
L 1099.172231 429.503778 
L 1099.72562 423.349442 
L 1100.279008 423.544376 
L 1100.832397 429.280996 
L 1101.385785 429.392387 
L 1101.939174 428.417718 
L 1102.492562 431.898677 
L 1103.04595 438.609966 
L 1104.152727 442.759269 
L 1104.706116 442.341554 
L 1105.259504 453.257841 
L 1105.812893 455.652741 
L 1106.366281 453.341384 
L 1106.919669 455.123635 
L 1107.473058 454.204662 
L 1108.026446 454.622377 
L 1108.579835 453.14645 
L 1109.133223 456.293237 
L 1109.686612 462.586811 
L 1110.24 451.224961 
L 1110.793388 452.67304 
L 1111.346777 452.812278 
L 1111.900165 458.437508 
L 1112.453554 471.637304 
L 1113.006942 475.480282 
L 1113.560331 475.452435 
L 1114.113719 464.926015 
L 1114.667107 462.057705 
L 1115.220496 461.194427 
L 1115.773884 460.581778 
L 1116.327273 463.115916 
L 1117.43405 469.687967 
L 1117.987438 467.37661 
L 1118.540826 470.133529 
L 1119.094215 469.743662 
L 1119.647603 472.862601 
L 1120.200992 474.199289 
L 1120.75438 475.006872 
L 1121.861157 484.335842 
L 1122.414545 491.074978 
L 1122.967934 485.616834 
L 1124.074711 492.801533 
L 1124.628099 498.482458 
L 1125.181488 482.943458 
L 1125.734876 485.366205 
L 1126.288264 485.366205 
L 1126.841653 479.908062 
L 1127.395041 465.009558 
L 1127.94843 464.257671 
L 1128.501818 462.224791 
L 1129.055207 466.095617 
L 1129.608595 466.54118 
L 1130.161983 464.452605 
L 1131.26876 472.055019 
L 1131.822149 470.857569 
L 1132.375537 468.490517 
L 1132.928926 464.062737 
L 1133.482314 462.531115 
L 1134.035702 450.835094 
L 1134.589091 461.110884 
L 1135.142479 456.181846 
L 1135.695868 448.412346 
L 1136.802645 437.356821 
L 1137.356033 434.85053 
L 1137.909421 438.44288 
L 1138.46281 440.00235 
L 1139.016198 446.797181 
L 1139.569587 443.316222 
L 1140.122975 441.701057 
L 1140.676364 442.731421 
L 1141.229752 445.627579 
L 1141.78314 449.247776 
L 1142.336529 451.364199 
L 1142.889917 450.75155 
L 1143.443306 449.303472 
L 1143.996694 460.303302 
L 1144.550083 463.812108 
L 1145.103471 457.240058 
L 1147.317025 475.090415 
L 1147.870413 476.70558 
L 1148.423802 480.604254 
L 1148.97719 475.285349 
L 1149.530579 474.839786 
L 1150.083967 474.032203 
L 1151.190744 459.328633 
L 1151.744132 459.022309 
L 1152.297521 447.326287 
L 1152.850909 445.321255 
L 1153.404298 444.513672 
L 1154.511074 430.729075 
L 1155.064463 430.78477 
L 1156.17124 422.263383 
L 1156.724628 419.200139 
L 1157.278017 412.461003 
L 1157.831405 412.572394 
L 1158.384793 418.420405 
L 1158.938182 419.701397 
L 1159.49157 429.141758 
L 1160.044959 422.569708 
L 1160.598347 419.924179 
L 1161.151736 421.567191 
L 1161.705124 417.779908 
L 1162.258512 420.871 
L 1162.811901 419.645702 
L 1163.365289 421.038086 
L 1163.918678 419.757093 
L 1164.472066 419.757093 
L 1165.025455 423.767157 
L 1165.578843 433.792319 
L 1166.132231 438.108708 
L 1166.68562 438.526423 
L 1167.239008 438.387185 
L 1167.792397 442.425097 
L 1168.345785 443.121289 
L 1168.899174 445.432645 
L 1169.452562 456.766647 
L 1170.00595 456.766647 
L 1170.559339 455.402112 
L 1171.112727 456.766647 
L 1171.666116 453.619861 
L 1173.326281 433.096127 
L 1173.879669 434.0151 
L 1174.433058 433.792319 
L 1174.986446 413.157195 
L 1175.539835 413.714148 
L 1176.093223 415.162227 
L 1176.646612 415.468552 
L 1177.2 423.516528 
L 1177.753388 428.167089 
L 1178.306777 425.660799 
L 1178.860165 426.746858 
L 1179.413554 425.939276 
L 1179.966942 424.713978 
L 1180.520331 427.80507 
L 1181.627107 431.759439 
L 1182.180496 428.6405 
L 1182.733884 433.987253 
L 1183.287273 434.989769 
L 1183.840661 433.569538 
L 1184.39405 435.323941 
L 1184.947438 441.283342 
L 1185.500826 442.675726 
L 1186.054215 442.090925 
L 1186.607603 439.501091 
L 1187.160992 450.389531 
L 1187.71438 450.835094 
L 1188.267769 458.799527 
L 1188.821157 455.17933 
L 1189.374545 449.470558 
L 1189.927934 449.44271 
L 1190.481322 453.731251 
L 1191.034711 454.566681 
L 1191.588099 446.992115 
L 1192.141488 450.500921 
L 1192.694876 450.500921 
L 1193.248264 461.166579 
L 1193.801653 459.495719 
L 1194.355041 459.412176 
L 1194.90843 458.855223 
L 1195.461818 463.450088 
L 1195.461818 463.450088 
" clip-path="url(#pe4d0f75b5b)" style="fill: none; stroke: #0000ff; stroke-width: 1.5; stroke-linecap: square"/>
   </g>
   <g id="line2d_18">
    <path d="M 221.498182 305.782172 
L 222.05157 310.053698 
L 222.604959 291.738934 
L 223.158347 295.69623 
L 223.711736 300.877301 
L 224.265124 283.975932 
L 224.818512 280.777228 
L 225.371901 293.13512 
L 225.925289 294.603491 
L 226.478678 292.444463 
L 227.032066 277.36261 
L 227.585455 295.208845 
L 228.138843 294.822272 
L 228.692231 292.275397 
L 229.24562 289.063414 
L 229.799008 288.245758 
L 230.352397 275.079983 
L 230.905785 288.653896 
L 231.459174 286.899872 
L 232.012562 288.40213 
L 232.56595 298.064 
L 233.119339 289.351936 
L 233.672727 318.242365 
L 234.226116 312.02252 
L 234.779504 317.476125 
L 235.886281 322.007278 
L 236.439669 344.765023 
L 236.993058 343.532485 
L 237.546446 334.862753 
L 238.099835 335.202372 
L 238.653223 305.196524 
L 239.206612 295.739253 
L 239.76 297.661599 
L 240.313388 283.903271 
L 240.866777 279.873101 
L 241.420165 267.256112 
L 241.973554 272.078814 
L 242.526942 266.891423 
L 243.080331 277.730433 
L 243.633719 276.641677 
L 244.187107 277.875862 
L 244.740496 289.496728 
L 245.293884 284.858176 
L 245.847273 278.981137 
L 246.400661 278.536669 
L 246.95405 284.416895 
L 247.507438 282.818711 
L 248.060826 275.625636 
L 249.720992 247.330576 
L 250.27438 246.770741 
L 250.827769 241.76766 
L 251.381157 234.337425 
L 251.934545 232.454756 
L 252.487934 246.386665 
L 253.041322 249.511115 
L 253.594711 250.133306 
L 254.148099 246.285959 
L 254.701488 271.45078 
L 255.254876 270.486473 
L 255.808264 296.614167 
L 256.361653 296.21968 
L 256.915041 301.925954 
L 257.46843 298.525784 
L 258.021818 296.958779 
L 258.575207 296.414773 
L 259.128595 293.814039 
L 259.681983 296.420615 
L 260.235372 294.660218 
L 260.78876 283.802139 
L 261.342149 269.699624 
L 261.895537 269.839317 
L 262.448926 265.694259 
L 263.002314 254.885684 
L 263.555702 235.849775 
L 264.109091 248.914471 
L 264.662479 256.518605 
L 265.215868 239.906768 
L 265.769256 242.9593 
L 266.322645 249.372856 
L 266.876033 238.910008 
L 267.429421 236.105737 
L 267.98281 225.407748 
L 268.536198 229.517644 
L 269.089587 237.259718 
L 269.642975 233.684852 
L 270.196364 239.677257 
L 270.749752 253.497252 
L 271.30314 282.166828 
L 271.856529 280.739994 
L 272.409917 280.474896 
L 272.963306 293.330797 
L 273.516694 278.581604 
L 274.070083 285.259196 
L 274.623471 285.915435 
L 275.730248 300.600358 
L 276.283636 292.997446 
L 276.837025 291.455723 
L 277.390413 293.016886 
L 277.943802 307.683113 
L 278.49719 305.777551 
L 279.603967 284.40829 
L 280.157355 261.867945 
L 280.710744 257.678376 
L 281.264132 260.999564 
L 281.817521 266.34747 
L 282.370909 258.83257 
L 282.924298 267.266257 
L 283.477686 262.430063 
L 284.031074 253.972527 
L 284.584463 252.671842 
L 285.137851 275.53688 
L 285.69124 271.216807 
L 286.244628 272.700634 
L 286.798017 270.791886 
L 287.351405 263.566676 
L 288.458182 282.865187 
L 289.01157 282.785089 
L 289.564959 278.840275 
L 290.118347 281.125664 
L 290.671736 294.86094 
L 291.778512 276.061871 
L 292.331901 270.639817 
L 292.885289 263.39267 
L 293.438678 275.674768 
L 293.992066 267.96366 
L 294.545455 268.721773 
L 295.098843 255.996961 
L 295.652231 256.065957 
L 296.20562 247.909425 
L 296.759008 216.640444 
L 297.312397 209.715494 
L 297.865785 213.872026 
L 298.419174 210.06717 
L 298.972562 199.771688 
L 299.52595 217.944582 
L 300.079339 219.543987 
L 300.632727 229.893381 
L 301.186116 229.867036 
L 301.739504 228.760965 
L 302.292893 233.425755 
L 302.846281 232.294933 
L 303.399669 221.05894 
L 303.953058 227.463041 
L 304.506446 220.764787 
L 305.059835 219.70822 
L 305.613223 220.571342 
L 306.166612 232.416726 
L 306.72 223.456029 
L 307.273388 211.678314 
L 307.826777 223.726811 
L 308.933554 237.919409 
L 309.486942 236.630409 
L 310.040331 237.472816 
L 310.593719 233.26471 
L 311.147107 263.573634 
L 311.700496 260.228862 
L 312.253884 263.10537 
L 312.807273 279.303812 
L 313.360661 279.493805 
L 313.91405 287.692192 
L 314.467438 283.567051 
L 315.020826 284.945391 
L 316.127603 307.705474 
L 316.680992 303.070269 
L 317.23438 304.166779 
L 317.787769 328.254371 
L 318.341157 323.098795 
L 318.894545 322.99777 
L 319.447934 319.293993 
L 320.001322 362.45494 
L 320.554711 375.342179 
L 321.108099 375.216137 
L 321.661488 374.247209 
L 322.214876 347.410427 
L 322.768264 336.418392 
L 323.321653 352.050094 
L 323.875041 346.925325 
L 324.42843 346.011106 
L 324.981818 355.604405 
L 325.535207 352.22888 
L 326.088595 336.939612 
L 326.641983 325.957775 
L 327.195372 319.659479 
L 327.74876 320.975568 
L 328.302149 327.930262 
L 328.855537 324.999576 
L 329.408926 323.832423 
L 329.962314 329.759868 
L 330.515702 319.735168 
L 331.069091 321.48882 
L 331.622479 313.98996 
L 332.175868 313.572528 
L 332.729256 304.106493 
L 333.282645 313.231369 
L 334.389421 307.446325 
L 334.94281 272.866407 
L 335.496198 273.762567 
L 336.049587 267.146004 
L 336.602975 269.312149 
L 337.156364 275.741799 
L 337.709752 265.17442 
L 338.26314 266.742913 
L 338.816529 271.104362 
L 339.369917 277.118014 
L 339.923306 266.603963 
L 340.476694 266.955745 
L 341.030083 273.88027 
L 342.13686 251.910382 
L 342.690248 253.607679 
L 343.243636 255.984904 
L 343.797025 264.009072 
L 344.350413 276.483819 
L 345.45719 267.341362 
L 346.010579 261.373602 
L 346.563967 278.081631 
L 347.117355 264.142498 
L 347.670744 257.031539 
L 348.224132 254.723683 
L 348.777521 262.520147 
L 349.330909 255.746416 
L 349.884298 267.711469 
L 350.437686 257.995899 
L 350.991074 261.285271 
L 351.544463 263.780677 
L 352.097851 273.298924 
L 352.65124 260.629139 
L 353.204628 254.196355 
L 353.758017 284.374828 
L 354.311405 279.943 
L 354.864793 281.505756 
L 355.418182 260.256429 
L 355.97157 263.009657 
L 356.524959 279.886539 
L 357.078347 271.272313 
L 357.631736 283.312736 
L 358.185124 289.841552 
L 358.738512 306.712751 
L 359.291901 305.948051 
L 359.845289 285.215004 
L 360.398678 291.820944 
L 360.952066 322.608223 
L 361.505455 330.973923 
L 362.058843 342.974722 
L 362.612231 326.782654 
L 363.16562 330.489671 
L 363.719008 329.672547 
L 364.272397 337.084244 
L 364.825785 350.191699 
L 365.379174 344.839385 
L 365.932562 348.541515 
L 366.48595 329.049293 
L 367.039339 332.503588 
L 367.592727 311.646623 
L 368.146116 326.762683 
L 368.699504 323.018963 
L 369.252893 337.218413 
L 369.806281 328.514582 
L 370.359669 347.477936 
L 370.913058 351.706651 
L 371.466446 347.657784 
L 372.019835 390.354664 
L 373.126612 383.242536 
L 373.68 399.375115 
L 374.233388 398.874982 
L 374.786777 388.608236 
L 375.340165 388.669318 
L 375.893554 392.335171 
L 376.446942 397.317166 
L 377.000331 400.867334 
L 378.107107 420.505517 
L 379.213884 410.822453 
L 379.767273 429.773379 
L 380.320661 405.504345 
L 380.87405 406.222357 
L 381.427438 390.221663 
L 381.980826 386.617477 
L 383.087603 353.811554 
L 383.640992 361.116224 
L 384.19438 347.457115 
L 384.747769 354.678023 
L 385.301157 400.719461 
L 385.854545 411.15761 
L 386.407934 406.066729 
L 386.961322 422.841418 
L 387.514711 418.681912 
L 388.068099 405.894902 
L 388.621488 385.486389 
L 389.174876 388.4951 
L 389.728264 397.602342 
L 390.281653 393.059981 
L 390.835041 391.563354 
L 391.38843 396.108423 
L 391.941818 385.952687 
L 392.495207 391.537965 
L 393.048595 376.678877 
L 393.601983 408.709371 
L 394.155372 418.016485 
L 394.70876 422.807159 
L 395.262149 432.655092 
L 395.815537 434.175515 
L 396.368926 440.619771 
L 396.922314 434.29444 
L 397.475702 423.109756 
L 398.029091 415.193092 
L 398.582479 410.140932 
L 399.135868 398.728862 
L 399.689256 405.532125 
L 400.242645 402.260971 
L 400.796033 406.877321 
L 401.349421 401.926133 
L 401.90281 390.412081 
L 402.456198 383.412133 
L 403.009587 371.666287 
L 403.562975 368.566589 
L 404.116364 352.247895 
L 404.669752 365.656194 
L 405.22314 351.071181 
L 405.776529 362.606372 
L 406.329917 353.590754 
L 406.883306 379.983599 
L 407.436694 370.318754 
L 407.990083 377.535572 
L 409.09686 364.194835 
L 409.650248 371.690773 
L 410.203636 375.600797 
L 410.757025 413.922417 
L 411.310413 415.562721 
L 411.863802 421.374057 
L 412.41719 413.27643 
L 412.970579 410.436093 
L 413.523967 411.65854 
L 414.077355 410.571643 
L 414.630744 408.821763 
L 415.184132 414.765674 
L 415.737521 424.917585 
L 416.290909 396.891341 
L 416.844298 403.921353 
L 417.397686 399.010426 
L 417.951074 395.852939 
L 418.504463 398.156758 
L 419.057851 399.743522 
L 419.61124 401.670702 
L 420.164628 385.516399 
L 420.718017 365.62645 
L 421.271405 352.635636 
L 421.824793 351.688486 
L 422.378182 340.748451 
L 422.93157 341.465187 
L 423.484959 344.437674 
L 424.038347 334.614227 
L 424.591736 321.668402 
L 425.145124 329.214534 
L 425.698512 319.403251 
L 426.805289 346.975041 
L 427.358678 340.208853 
L 427.912066 317.790354 
L 428.465455 322.110268 
L 429.018843 313.924257 
L 429.572231 311.819142 
L 430.12562 312.690762 
L 430.679008 320.245764 
L 431.232397 308.368458 
L 432.339174 326.374039 
L 432.892562 313.621978 
L 433.44595 316.573591 
L 433.999339 321.070803 
L 434.552727 313.839804 
L 435.106116 323.433209 
L 435.659504 327.177194 
L 436.212893 317.429171 
L 436.766281 329.5865 
L 437.319669 323.778989 
L 437.873058 329.052427 
L 438.426446 344.023854 
L 438.979835 354.862439 
L 439.533223 328.471506 
L 440.086612 333.759975 
L 440.64 322.76008 
L 441.193388 306.724436 
L 441.746777 303.735377 
L 442.300165 306.594463 
L 442.853554 297.586069 
L 443.406942 301.55112 
L 443.960331 286.858283 
L 444.513719 284.809204 
L 445.067107 276.839106 
L 446.173884 270.893761 
L 446.727273 254.126561 
L 447.280661 243.385868 
L 447.83405 227.355058 
L 448.387438 223.162833 
L 448.940826 206.384161 
L 449.494215 217.72426 
L 450.047603 207.583609 
L 450.600992 216.693081 
L 451.15438 237.405944 
L 451.707769 241.303645 
L 452.261157 242.889772 
L 452.814545 250.391499 
L 453.367934 247.333763 
L 453.921322 245.938107 
L 454.474711 245.35299 
L 455.028099 231.986121 
L 455.581488 230.452897 
L 456.134876 240.229602 
L 457.795041 211.29052 
L 458.34843 230.808875 
L 458.901818 237.17229 
L 459.455207 229.943575 
L 460.008595 234.292755 
L 460.561983 218.939642 
L 461.115372 240.8212 
L 461.66876 228.00402 
L 462.222149 225.018042 
L 462.775537 202.712041 
L 463.328926 206.868306 
L 463.882314 211.940969 
L 464.435702 185.410131 
L 464.989091 216.892794 
L 465.542479 214.358083 
L 466.095868 233.374287 
L 466.649256 233.017406 
L 467.202645 220.905118 
L 467.756033 252.219938 
L 468.309421 262.534913 
L 468.86281 245.911762 
L 469.416198 249.174736 
L 469.969587 255.381515 
L 470.522975 264.030956 
L 471.076364 265.871292 
L 471.629752 272.987987 
L 472.18314 281.729796 
L 472.736529 266.359208 
L 473.289917 280.097565 
L 473.843306 275.593289 
L 474.950083 284.979332 
L 475.503471 285.795553 
L 476.05686 302.650021 
L 476.610248 306.771071 
L 477.163636 297.027191 
L 477.717025 299.822964 
L 478.270413 306.283845 
L 478.823802 308.874328 
L 479.37719 298.889623 
L 479.930579 267.857589 
L 480.483967 264.213141 
L 481.037355 267.908048 
L 482.144132 246.630411 
L 482.697521 257.059531 
L 483.804298 291.701488 
L 484.357686 285.781478 
L 484.911074 283.609119 
L 486.017851 304.883516 
L 486.57124 304.198808 
L 487.124628 312.764539 
L 487.678017 284.935671 
L 488.231405 286.848828 
L 488.784793 295.499226 
L 489.338182 279.6216 
L 490.444959 293.700479 
L 490.998347 285.875917 
L 491.551736 289.610607 
L 492.105124 291.03197 
L 492.658512 293.730754 
L 493.765289 308.407392 
L 494.872066 299.997925 
L 495.425455 329.892019 
L 496.532231 307.555583 
L 497.08562 310.154298 
L 497.639008 316.690232 
L 498.192397 305.287245 
L 498.745785 300.970677 
L 499.299174 309.913421 
L 499.852562 302.97174 
L 500.40595 307.361447 
L 500.959339 308.429647 
L 501.512727 294.061025 
L 502.066116 293.321767 
L 502.619504 286.705576 
L 503.172893 274.895674 
L 503.726281 277.175963 
L 504.279669 253.941083 
L 504.833058 241.641777 
L 505.386446 238.360743 
L 505.939835 230.226945 
L 506.493223 236.505163 
L 507.046612 233.977729 
L 507.6 228.43813 
L 508.153388 228.401268 
L 509.260165 255.657714 
L 509.813554 250.678056 
L 510.366942 259.94119 
L 510.920331 262.900186 
L 511.473719 282.946984 
L 512.027107 276.5142 
L 512.580496 260.51186 
L 513.133884 264.39283 
L 513.687273 259.297912 
L 514.240661 257.250692 
L 514.79405 260.968545 
L 515.347438 247.158429 
L 515.900826 251.91665 
L 516.454215 260.356445 
L 517.007603 252.165016 
L 517.560992 264.735317 
L 518.11438 282.363089 
L 518.667769 281.002224 
L 519.221157 277.555471 
L 519.774545 282.931847 
L 520.327934 302.523023 
L 520.881322 298.25872 
L 521.434711 297.180641 
L 521.988099 297.937267 
L 522.541488 301.822114 
L 523.094876 299.735748 
L 523.648264 299.322778 
L 524.201653 302.352098 
L 524.755041 313.440484 
L 525.30843 332.779893 
L 525.861818 304.73235 
L 526.415207 296.452166 
L 526.968595 304.799063 
L 528.075372 291.734791 
L 528.62876 298.495721 
L 529.182149 312.09141 
L 529.735537 307.877568 
L 530.288926 295.604128 
L 530.842314 268.365051 
L 531.395702 265.370787 
L 531.949091 268.131876 
L 532.502479 265.687088 
L 533.055868 256.742911 
L 533.609256 261.954735 
L 534.162645 254.803143 
L 534.716033 241.175797 
L 535.269421 265.664408 
L 535.82281 256.766547 
L 536.376198 263.529283 
L 536.929587 263.924194 
L 537.482975 258.746576 
L 538.036364 274.992025 
L 538.589752 269.939758 
L 539.14314 266.596155 
L 539.696529 270.610869 
L 540.249917 286.27359 
L 540.803306 283.174371 
L 541.910083 272.656655 
L 543.01686 267.298126 
L 543.570248 286.857645 
L 544.123636 276.174794 
L 544.677025 277.808725 
L 545.230413 281.16805 
L 546.33719 226.885732 
L 547.443967 218.988933 
L 547.997355 222.612241 
L 548.550744 222.154653 
L 549.104132 214.59434 
L 549.657521 238.09129 
L 550.210909 244.197734 
L 550.764298 227.172289 
L 551.317686 230.094953 
L 551.871074 225.701953 
L 552.424463 226.586428 
L 552.977851 231.788266 
L 553.53124 227.927587 
L 554.638017 198.499951 
L 555.744793 204.95993 
L 556.298182 202.158633 
L 556.85157 202.905699 
L 557.404959 207.047783 
L 557.958347 205.464206 
L 558.511736 203.019631 
L 559.065124 196.862515 
L 559.618512 205.23666 
L 560.171901 204.376778 
L 560.725289 210.199002 
L 561.278678 202.952068 
L 561.832066 206.828098 
L 562.385455 206.920094 
L 562.938843 206.269857 
L 563.492231 212.051236 
L 564.04562 204.865119 
L 564.599008 204.949572 
L 565.152397 204.696478 
L 565.705785 167.306552 
L 566.259174 166.949406 
L 566.812562 158.652065 
L 567.36595 156.720477 
L 567.919339 159.30347 
L 568.472727 162.440667 
L 569.026116 163.517632 
L 569.579504 160.908081 
L 570.132893 167.982709 
L 570.686281 170.044217 
L 571.239669 155.806524 
L 571.793058 157.841208 
L 572.346446 160.641124 
L 572.899835 162.533513 
L 573.453223 160.203136 
L 574.006612 159.421705 
L 574.56 167.044057 
L 575.113388 170.915731 
L 575.666777 161.178012 
L 576.773554 151.961035 
L 577.326942 158.97883 
L 577.880331 177.081771 
L 578.433719 181.788841 
L 578.987107 175.802066 
L 579.540496 167.829631 
L 580.093884 169.019837 
L 580.647273 166.836961 
L 581.200661 174.652174 
L 581.75405 196.916321 
L 582.860826 185.973099 
L 583.414215 209.939163 
L 583.967603 206.126871 
L 584.520992 205.537505 
L 585.07438 198.287065 
L 585.627769 202.237509 
L 586.181157 207.62472 
L 586.734545 202.936877 
L 587.287934 195.246856 
L 587.841322 212.478123 
L 588.394711 213.256314 
L 588.948099 206.232092 
L 589.501488 211.160866 
L 590.054876 221.80797 
L 590.608264 222.887059 
L 591.161653 238.589351 
L 591.715041 227.1077 
L 592.26843 221.674917 
L 592.821818 229.74179 
L 593.375207 231.147538 
L 593.928595 243.598276 
L 594.481983 236.912079 
L 595.035372 246.362179 
L 595.58876 258.062399 
L 596.142149 241.345925 
L 596.695537 232.237249 
L 597.248926 232.591528 
L 597.802314 225.79756 
L 598.355702 225.692923 
L 599.462479 200.083103 
L 600.015868 199.816889 
L 600.569256 207.756127 
L 601.122645 207.434515 
L 601.676033 202.162564 
L 602.229421 209.639699 
L 602.78281 205.174462 
L 603.336198 204.677091 
L 603.889587 204.84945 
L 604.442975 224.882704 
L 604.996364 222.612666 
L 605.549752 217.803773 
L 606.10314 196.851361 
L 606.656529 186.942505 
L 607.209917 190.117679 
L 607.763306 190.764569 
L 608.316694 167.59704 
L 609.423471 160.749691 
L 609.97686 161.390473 
L 610.530248 178.689834 
L 611.083636 180.69573 
L 611.637025 175.073059 
L 612.190413 174.081823 
L 612.743802 177.016333 
L 613.29719 182.452463 
L 613.850579 180.522468 
L 614.403967 167.863678 
L 614.957355 168.862881 
L 615.510744 186.719952 
L 616.064132 200.974748 
L 617.170909 190.508713 
L 617.724298 165.729562 
L 618.277686 183.562252 
L 618.831074 211.744336 
L 619.384463 224.508932 
L 619.937851 219.795116 
L 620.49124 221.571289 
L 621.044628 220.961632 
L 621.598017 213.602732 
L 622.151405 214.641771 
L 623.258182 237.776742 
L 623.81157 214.914837 
L 624.364959 222.348205 
L 625.471736 226.470743 
L 626.025124 240.17893 
L 626.578512 179.711293 
L 627.131901 177.863733 
L 627.685289 164.941226 
L 628.238678 175.732432 
L 628.792066 196.97735 
L 629.345455 195.816889 
L 629.898843 202.069187 
L 630.452231 195.276388 
L 631.00562 209.730314 
L 631.559008 211.443704 
L 632.112397 218.554663 
L 632.665785 200.343899 
L 633.219174 206.158581 
L 633.772562 201.434779 
L 634.32595 235.985803 
L 634.879339 245.370624 
L 635.432727 261.906453 
L 635.986116 259.714973 
L 636.539504 259.06718 
L 637.092893 262.83597 
L 637.646281 244.704878 
L 638.199669 241.992549 
L 638.753058 256.299824 
L 639.306446 262.442333 
L 639.859835 265.5543 
L 640.413223 257.299664 
L 640.966612 299.7588 
L 641.52 300.64046 
L 642.073388 278.919098 
L 642.626777 281.037386 
L 643.180165 273.469105 
L 643.733554 251.839102 
L 644.286942 261.011515 
L 644.840331 250.528855 
L 645.947107 242.627329 
L 646.500496 241.625045 
L 647.053884 256.131555 
L 647.607273 257.191947 
L 648.160661 249.994091 
L 648.71405 266.530027 
L 649.267438 219.295196 
L 649.820826 230.859972 
L 650.374215 266.658725 
L 650.927603 255.419067 
L 651.480992 262.298762 
L 652.587769 279.07361 
L 653.141157 280.22228 
L 653.694545 247.013637 
L 654.247934 250.469579 
L 654.801322 244.219192 
L 655.354711 244.081518 
L 655.908099 230.948462 
L 657.568264 252.429371 
L 658.121653 256.255207 
L 658.675041 250.878141 
L 659.22843 258.122685 
L 659.781818 231.110357 
L 660.335207 232.484341 
L 660.888595 265.506497 
L 661.441983 265.647146 
L 661.995372 266.057036 
L 662.54876 249.713112 
L 663.102149 263.654475 
L 663.655537 256.799266 
L 664.208926 277.611773 
L 664.762314 251.43277 
L 665.315702 272.419655 
L 665.869091 287.958246 
L 666.422479 283.544796 
L 666.975868 294.489452 
L 667.529256 247.794696 
L 668.082645 246.585847 
L 668.636033 181.195757 
L 669.189421 179.596404 
L 669.74281 169.711609 
L 670.296198 171.155122 
L 671.402975 184.917115 
L 671.956364 175.263424 
L 672.509752 180.648351 
L 673.06314 184.864106 
L 673.616529 186.427393 
L 674.169917 181.490387 
L 674.723306 169.834571 
L 675.276694 148.584129 
L 675.830083 154.266342 
L 676.383471 168.26082 
L 676.93686 178.149387 
L 677.490248 176.245578 
L 678.043636 198.287543 
L 678.597025 191.289613 
L 679.150413 186.248129 
L 679.703802 180.159054 
L 680.25719 167.437959 
L 680.810579 161.105457 
L 681.363967 179.179025 
L 681.917355 203.042683 
L 682.470744 187.962688 
L 683.024132 207.998811 
L 683.577521 206.937037 
L 684.130909 159.560495 
L 684.684298 159.575314 
L 685.791074 185.304803 
L 686.344463 205.245636 
L 686.897851 252.915428 
L 687.45124 255.037541 
L 688.004628 280.124123 
L 688.558017 258.07759 
L 689.111405 260.196037 
L 689.664793 247.211651 
L 690.218182 293.838897 
L 690.77157 297.930734 
L 691.324959 290.837037 
L 692.431736 368.095936 
L 692.985124 380.196857 
L 693.538512 387.376919 
L 694.091901 379.912531 
L 694.645289 389.210722 
L 695.198678 379.21311 
L 695.752066 400.624119 
L 696.305455 404.132114 
L 696.858843 397.351797 
L 697.412231 410.843115 
L 697.96562 414.516511 
L 698.519008 421.46345 
L 699.072397 424.392542 
L 699.625785 412.082718 
L 700.179174 428.250247 
L 700.732562 425.872597 
L 701.28595 433.460903 
L 701.839339 439.035769 
L 702.392727 428.292845 
L 702.946116 432.860223 
L 703.499504 434.614406 
L 704.052893 443.497979 
L 704.606281 436.209243 
L 705.159669 440.325832 
L 705.713058 447.676181 
L 706.266446 444.274789 
L 706.819835 433.220344 
L 707.373223 435.835418 
L 707.926612 436.097117 
L 708.48 433.970224 
L 709.033388 444.677721 
L 709.586777 429.685526 
L 710.140165 432.566336 
L 710.693554 423.379475 
L 711.246942 407.62582 
L 711.800331 416.252741 
L 712.353719 431.022595 
L 713.460496 441.626358 
L 714.013884 439.962205 
L 714.567273 447.905214 
L 715.120661 429.443267 
L 715.67405 434.322644 
L 716.780826 457.019148 
L 717.334215 481.833515 
L 717.887603 494.564993 
L 718.440992 494.216133 
L 718.99438 494.357074 
L 719.547769 489.772726 
L 720.101157 497.555566 
L 720.654545 510.27026 
L 721.207934 510.256131 
L 721.761322 518.428996 
L 722.314711 516.77127 
L 722.868099 512.863053 
L 723.421488 504.389927 
L 723.974876 508.46915 
L 724.528264 507.721101 
L 725.081653 506.048211 
L 725.635041 501.413616 
L 726.741818 515.309194 
L 727.295207 497.957462 
L 727.848595 505.02561 
L 728.401983 500.279872 
L 728.955372 496.88658 
L 729.50876 485.364827 
L 730.062149 494.79137 
L 730.615537 486.066877 
L 731.168926 506.818568 
L 731.722314 497.235228 
L 732.829091 520.835806 
L 733.382479 521.42512 
L 733.935868 537.607467 
L 734.489256 536.795973 
L 735.042645 536.614637 
L 735.596033 526.701373 
L 736.70281 512.418824 
L 737.256198 524.433937 
L 737.809587 546.478186 
L 738.916364 578.874007 
L 739.469752 590.228633 
L 740.02314 593.799463 
L 740.576529 594.928081 
L 741.683306 487.867828 
L 742.236694 464.414857 
L 742.790083 459.692437 
L 743.343471 456.58764 
L 743.89686 450.13754 
L 744.450248 447.013941 
L 745.003636 450.675385 
L 745.557025 455.192197 
L 746.110413 472.183755 
L 746.663802 476.391595 
L 747.21719 439.283021 
L 747.770579 436.634962 
L 748.323967 425.166218 
L 748.877355 405.793239 
L 749.430744 415.334272 
L 749.984132 421.287373 
L 750.537521 421.439176 
L 751.090909 424.864576 
L 751.644298 425.934954 
L 752.197686 437.388826 
L 753.304463 444.290511 
L 753.857851 441.120064 
L 754.41124 436.107156 
L 754.964628 438.345484 
L 755.518017 435.188475 
L 756.071405 441.575527 
L 756.624793 442.950095 
L 757.178182 439.405239 
L 757.73157 429.80886 
L 758.284959 431.319031 
L 758.838347 445.935171 
L 759.391736 445.505734 
L 759.945124 428.48321 
L 760.498512 426.971763 
L 761.051901 434.780391 
L 761.605289 435.062751 
L 762.158678 435.726107 
L 762.712066 435.304638 
L 763.265455 428.027428 
L 763.818843 431.827078 
L 764.372231 430.814649 
L 764.92562 437.385639 
L 765.479008 430.29651 
L 766.032397 427.675434 
L 766.585785 432.215935 
L 767.692562 419.14991 
L 768.24595 425.083624 
L 768.799339 425.947596 
L 769.906116 432.257683 
L 770.459504 430.045222 
L 771.012893 431.59624 
L 771.566281 430.388718 
L 772.119669 434.204569 
L 772.673058 443.952539 
L 773.226446 451.378206 
L 773.779835 453.573298 
L 774.333223 456.464572 
L 775.44 454.53633 
L 775.993388 457.26693 
L 776.546777 458.941016 
L 777.100165 461.918442 
L 777.653554 466.350323 
L 778.206942 469.559013 
L 778.760331 468.781513 
L 779.313719 457.048042 
L 779.867107 459.383253 
L 780.420496 451.221144 
L 780.973884 458.816036 
L 781.527273 455.711239 
L 782.080661 455.179449 
L 782.63405 459.800367 
L 783.187438 456.875737 
L 783.740826 461.101583 
L 784.294215 457.855925 
L 785.400992 454.316911 
L 785.95438 454.454904 
L 786.507769 457.9578 
L 787.061157 458.980002 
L 787.614545 456.680166 
L 788.167934 460.599007 
L 788.721322 466.464467 
L 789.274711 464.604691 
L 789.828099 465.227361 
L 790.381488 458.051495 
L 790.934876 442.324186 
L 791.488264 442.163671 
L 792.041653 428.223901 
L 792.595041 428.576002 
L 793.14843 428.263632 
L 793.701818 433.835737 
L 794.255207 434.761216 
L 795.361983 432.032156 
L 795.915372 435.547003 
L 796.46876 441.820653 
L 797.022149 443.830427 
L 797.575537 441.071091 
L 798.128926 441.497022 
L 798.682314 441.083042 
L 799.235702 446.556512 
L 799.789091 446.803498 
L 800.342479 438.355629 
L 800.895868 443.006716 
L 801.449256 440.892518 
L 802.002645 435.273937 
L 802.556033 438.523951 
L 803.109421 442.843918 
L 803.66281 440.476785 
L 804.216198 438.909939 
L 804.769587 439.692964 
L 805.322975 451.70821 
L 805.876364 459.39138 
L 806.429752 440.77099 
L 806.98314 433.916578 
L 807.536529 429.086386 
L 808.089917 413.927728 
L 808.643306 410.15692 
L 809.196694 434.482999 
L 809.750083 433.547905 
L 810.303471 432.366995 
L 810.85686 426.998852 
L 811.410248 430.320359 
L 811.963636 442.28164 
L 812.517025 425.240101 
L 813.070413 425.401731 
L 813.623802 425.982333 
L 814.17719 428.362798 
L 814.730579 429.554916 
L 815.837355 386.264155 
L 816.390744 398.930434 
L 816.944132 394.828559 
L 817.497521 420.612969 
L 818.050909 421.246474 
L 818.604298 421.612916 
L 819.157686 426.038529 
L 819.711074 439.967995 
L 820.264463 446.676447 
L 820.817851 456.63231 
L 821.37124 453.252748 
L 821.924628 454.202767 
L 822.478017 459.689515 
L 823.031405 454.545785 
L 823.584793 451.334226 
L 824.138182 450.270753 
L 824.69157 457.825331 
L 825.244959 456.029983 
L 825.798347 461.114119 
L 826.351736 458.452568 
L 826.905124 453.133451 
L 827.458512 472.924818 
L 828.011901 474.560767 
L 828.565289 479.1845 
L 829.118678 481.470101 
L 829.672066 473.956209 
L 830.225455 470.037687 
L 830.778843 473.549188 
L 831.332231 475.469568 
L 831.88562 473.695308 
L 832.439008 468.191615 
L 832.992397 471.814604 
L 833.545785 474.426704 
L 834.099174 479.680224 
L 834.652562 479.666839 
L 835.20595 485.607563 
L 836.312727 502.363449 
L 836.866116 506.761177 
L 837.419504 508.343957 
L 837.972893 505.97616 
L 838.526281 508.274774 
L 839.633058 514.95789 
L 840.186446 512.471806 
L 840.739835 503.405596 
L 841.293223 507.199483 
L 841.846612 507.385865 
L 842.4 503.533976 
L 842.953388 504.863821 
L 843.506777 505.31955 
L 844.060165 504.258547 
L 844.613554 504.196349 
L 845.166942 502.289008 
L 845.720331 499.756687 
L 846.273719 512.544335 
L 846.827107 512.305688 
L 847.380496 517.443922 
L 847.933884 516.679222 
L 848.487273 514.947506 
L 849.59405 521.951491 
L 850.147438 521.717253 
L 850.700826 510.825394 
L 851.254215 514.58619 
L 851.807603 517.579206 
L 852.360992 517.106534 
L 852.91438 518.23332 
L 853.467769 522.548825 
L 854.021157 524.264659 
L 854.574545 526.956166 
L 855.127934 531.284685 
L 855.681322 530.532308 
L 856.234711 522.511485 
L 856.788099 521.578304 
L 857.341488 526.32221 
L 857.894876 526.764925 
L 858.448264 527.536875 
L 859.001653 530.531989 
L 859.555041 524.790393 
L 860.10843 517.007952 
L 860.661818 517.283753 
L 861.215207 518.050657 
L 862.321983 518.911867 
L 862.875372 516.132108 
L 863.42876 514.938902 
L 863.982149 512.150884 
L 864.535537 513.561305 
L 865.088926 524.515575 
L 866.195702 513.943044 
L 866.749091 513.062208 
L 867.302479 510.233265 
L 867.855868 514.814293 
L 868.409256 515.735896 
L 868.962645 518.049701 
L 869.516033 512.987449 
L 870.069421 513.45396 
L 870.62281 514.423419 
L 871.176198 514.698608 
L 871.729587 512.680814 
L 872.282975 516.088766 
L 872.836364 516.542742 
L 873.389752 506.168517 
L 873.94314 506.234008 
L 874.496529 506.742746 
L 875.049917 510.385998 
L 875.603306 510.07716 
L 876.156694 510.047229 
L 876.710083 511.081276 
L 877.263471 509.21425 
L 877.81686 511.813655 
L 878.370248 514.950428 
L 878.923636 505.84231 
L 879.477025 500.447955 
L 880.030413 497.638638 
L 880.583802 501.16926 
L 881.13719 501.247339 
L 881.690579 503.941051 
L 882.243967 502.767975 
L 882.797355 503.292142 
L 883.904132 508.318462 
L 884.457521 499.735521 
L 885.010909 502.139754 
L 885.564298 503.683628 
L 886.117686 503.470317 
L 886.671074 511.662065 
L 887.224463 510.356041 
L 887.777851 511.10239 
L 888.33124 513.018096 
L 888.884628 507.473027 
L 889.438017 496.170348 
L 889.991405 492.118453 
L 890.544793 490.725852 
L 891.098182 489.999979 
L 891.65157 489.978733 
L 892.204959 490.62395 
L 892.758347 480.73403 
L 893.311736 484.585149 
L 893.865124 485.854682 
L 894.418512 493.332959 
L 894.971901 498.898053 
L 895.525289 495.505903 
L 896.078678 494.590621 
L 896.632066 492.366979 
L 897.185455 490.878611 
L 897.738843 494.273444 
L 898.292231 494.235228 
L 898.84562 490.446307 
L 899.399008 489.557955 
L 899.952397 486.984151 
L 900.505785 483.38023 
L 901.059174 487.374601 
L 901.612562 490.1265 
L 902.16595 490.494217 
L 902.719339 494.36536 
L 903.272727 504.416618 
L 903.826116 502.500699 
L 904.379504 504.490953 
L 904.932893 504.991723 
L 905.486281 502.829934 
L 906.039669 498.330411 
L 906.593058 495.937225 
L 907.146446 495.960064 
L 907.699835 494.214513 
L 908.253223 495.590754 
L 908.806612 495.390138 
L 909.36 493.157865 
L 909.913388 493.722798 
L 910.466777 492.489224 
L 911.020165 490.917598 
L 911.573554 490.803692 
L 912.126942 494.80943 
L 913.787107 502.80489 
L 914.340496 508.442698 
L 914.893884 518.056632 
L 915.447273 520.040459 
L 916.000661 514.952871 
L 917.107438 519.318782 
L 917.660826 519.991859 
L 918.214215 522.240119 
L 918.767603 514.697334 
L 919.320992 515.821013 
L 919.87438 522.495604 
L 920.427769 521.208064 
L 920.981157 520.344729 
L 921.534545 525.392428 
L 922.641322 519.394419 
L 923.748099 531.648232 
L 924.301488 525.300963 
L 924.854876 529.484238 
L 925.408264 535.811296 
L 925.961653 531.895483 
L 926.515041 532.098357 
L 927.06843 529.909479 
L 927.621818 525.385974 
L 928.175207 530.657792 
L 928.728595 526.303407 
L 929.281983 526.072329 
L 929.835372 529.242591 
L 930.38876 534.750931 
L 930.942149 538.567126 
L 931.495537 539.601572 
L 932.048926 535.822105 
L 932.602314 526.661058 
L 933.155702 524.308718 
L 933.709091 526.26288 
L 934.262479 522.182596 
L 934.815868 515.533208 
L 935.369256 518.687853 
L 935.922645 530.620399 
L 936.476033 527.951652 
L 937.029421 526.519878 
L 937.58281 520.285214 
L 938.136198 522.847518 
L 938.689587 519.400739 
L 939.242975 517.825793 
L 939.796364 522.626373 
L 940.349752 521.635376 
L 940.90314 522.85198 
L 942.009917 519.409185 
L 942.563306 519.098009 
L 943.116694 519.637527 
L 943.670083 522.342366 
L 944.223471 528.876122 
L 944.77686 529.857532 
L 945.330248 529.564655 
L 945.883636 521.789888 
L 946.437025 523.175319 
L 946.990413 519.550737 
L 947.543802 521.536502 
L 948.09719 522.166581 
L 948.650579 519.926527 
L 949.203967 531.070232 
L 949.757355 526.343057 
L 950.310744 524.872032 
L 950.864132 528.319475 
L 951.417521 527.934761 
L 951.970909 528.723788 
L 953.077686 531.798893 
L 953.631074 532.101703 
L 954.184463 534.109432 
L 954.737851 529.974757 
L 955.29124 529.671576 
L 955.844628 533.06439 
L 956.398017 532.494596 
L 956.951405 533.040355 
L 957.504793 531.92151 
L 958.058182 531.919837 
L 958.61157 536.956221 
L 959.164959 534.255472 
L 959.718347 524.495418 
L 960.271736 523.552756 
L 961.378512 518.036661 
L 961.931901 514.383157 
L 962.485289 518.799422 
L 963.038678 524.648071 
L 963.592066 518.155958 
L 964.145455 517.974755 
L 964.698843 521.392932 
L 965.252231 520.523303 
L 966.359008 527.641725 
L 966.912397 513.372959 
L 967.465785 514.949365 
L 968.019174 504.8366 
L 968.572562 500.003938 
L 969.12595 500.983356 
L 969.679339 503.400152 
L 970.232727 503.046484 
L 970.786116 500.698553 
L 971.339504 503.138852 
L 971.892893 500.5928 
L 972.446281 497.485613 
L 972.999669 498.322417 
L 973.553058 500.06526 
L 974.106446 499.180732 
L 974.659835 496.421848 
L 975.213223 499.453532 
L 975.766612 500.623926 
L 976.32 498.906472 
L 976.873388 502.465962 
L 977.426777 498.513658 
L 977.980165 496.364829 
L 978.533554 491.712334 
L 979.086942 490.107485 
L 979.640331 487.615106 
L 980.193719 491.199454 
L 980.747107 482.946093 
L 981.300496 481.921527 
L 981.853884 483.748212 
L 982.407273 482.843182 
L 982.960661 482.346661 
L 984.067438 489.66469 
L 984.620826 480.671619 
L 985.174215 485.021384 
L 987.387769 472.883229 
L 987.941157 476.663705 
L 988.494545 477.531501 
L 989.047934 477.863896 
L 989.601322 477.477111 
L 990.154711 471.906015 
L 990.708099 450.53054 
L 991.261488 458.215462 
L 991.814876 460.299172 
L 992.368264 459.389255 
L 992.921653 464.6756 
L 993.475041 462.679955 
L 994.02843 466.116085 
L 994.581818 470.608145 
L 995.135207 473.721546 
L 995.688595 473.71496 
L 996.795372 470.657383 
L 997.34876 476.019364 
L 997.902149 475.987388 
L 998.455537 469.589926 
L 999.008926 467.173609 
L 999.562314 474.180037 
L 1000.115702 469.457988 
L 1000.669091 471.28632 
L 1001.222479 472.645963 
L 1001.775868 472.221998 
L 1002.329256 477.02696 
L 1002.882645 478.862462 
L 1003.436033 467.736736 
L 1003.989421 464.164579 
L 1004.54281 464.484598 
L 1005.096198 470.735462 
L 1005.649587 472.586368 
L 1006.202975 471.634278 
L 1006.756364 471.123787 
L 1007.309752 472.606339 
L 1007.86314 476.436478 
L 1008.416529 482.708588 
L 1008.969917 474.452306 
L 1009.523306 471.920091 
L 1010.076694 472.728504 
L 1010.630083 471.732488 
L 1011.183471 468.464574 
L 1011.73686 469.968319 
L 1012.290248 453.450814 
L 1012.843636 450.644897 
L 1013.397025 451.136903 
L 1013.950413 463.748686 
L 1014.503802 466.416345 
L 1015.05719 468.36647 
L 1015.610579 471.918391 
L 1016.163967 464.219181 
L 1016.717355 468.625301 
L 1017.270744 470.999392 
L 1017.824132 475.25493 
L 1018.377521 476.513495 
L 1018.930909 480.135209 
L 1020.037686 467.436423 
L 1020.591074 479.561458 
L 1021.144463 479.406787 
L 1021.697851 470.305601 
L 1022.25124 466.167288 
L 1022.804628 469.711348 
L 1023.358017 474.136376 
L 1023.911405 474.595079 
L 1024.464793 480.324246 
L 1025.018182 477.257533 
L 1025.57157 478.620788 
L 1026.678347 470.374332 
L 1027.231736 468.43722 
L 1027.785124 470.355051 
L 1028.338512 468.902668 
L 1028.891901 472.983086 
L 1029.445289 470.735409 
L 1029.998678 464.252325 
L 1030.552066 473.560129 
L 1031.105455 473.225132 
L 1031.658843 478.110776 
L 1032.212231 474.756974 
L 1032.76562 473.325201 
L 1033.319008 470.699716 
L 1033.872397 472.289135 
L 1034.425785 468.880148 
L 1034.979174 468.557526 
L 1035.532562 473.458839 
L 1036.08595 473.860815 
L 1036.639339 466.191827 
L 1037.192727 462.649255 
L 1037.746116 461.760053 
L 1038.299504 469.84472 
L 1038.852893 470.724467 
L 1039.406281 481.52874 
L 1039.959669 477.697433 
L 1040.513058 479.618292 
L 1041.066446 469.958015 
L 1041.619835 468.793835 
L 1042.173223 466.394568 
L 1042.726612 453.077096 
L 1043.28 451.539623 
L 1043.833388 457.207601 
L 1044.386777 454.739071 
L 1044.940165 445.694346 
L 1045.493554 440.648294 
L 1046.046942 444.746133 
L 1046.600331 460.27596 
L 1047.153719 457.939528 
L 1047.707107 457.346762 
L 1048.260496 459.070723 
L 1048.813884 453.110399 
L 1049.367273 452.409437 
L 1049.920661 452.240744 
L 1050.47405 454.055319 
L 1051.027438 458.65754 
L 1051.580826 457.202183 
L 1052.134215 457.83999 
L 1053.240992 449.811732 
L 1053.79438 450.150872 
L 1054.347769 450.274206 
L 1054.901157 451.758776 
L 1055.454545 453.646544 
L 1056.007934 459.756387 
L 1058.221488 478.550835 
L 1058.774876 478.271077 
L 1059.328264 480.911806 
L 1059.881653 479.5886 
L 1060.435041 483.773761 
L 1061.541818 489.835455 
L 1062.095207 495.061488 
L 1062.648595 491.510125 
L 1063.201983 491.347034 
L 1063.755372 491.974219 
L 1064.30876 488.602996 
L 1064.862149 483.99233 
L 1065.415537 475.615104 
L 1065.968926 475.318774 
L 1066.522314 473.638687 
L 1067.075702 470.858264 
L 1067.629091 462.694456 
L 1068.182479 457.163409 
L 1069.289256 457.618819 
L 1069.842645 455.024884 
L 1070.396033 460.632364 
L 1070.949421 461.480242 
L 1071.50281 447.507381 
L 1072.056198 456.019094 
L 1072.609587 458.492033 
L 1073.162975 455.423779 
L 1073.716364 456.874887 
L 1074.269752 461.838291 
L 1075.376529 454.765204 
L 1075.929917 458.594439 
L 1076.483306 452.153103 
L 1077.036694 462.872763 
L 1077.590083 453.315477 
L 1078.143471 453.518005 
L 1078.69686 466.009429 
L 1079.250248 462.268206 
L 1079.803636 465.026585 
L 1080.357025 463.152256 
L 1080.910413 460.130478 
L 1081.463802 458.751979 
L 1082.01719 456.123413 
L 1082.570579 455.025734 
L 1083.123967 451.178333 
L 1083.677355 458.873081 
L 1084.230744 456.753465 
L 1084.784132 447.268044 
L 1085.337521 446.261351 
L 1085.890909 450.551839 
L 1086.444298 453.663222 
L 1086.997686 451.9348 
L 1088.104463 463.676025 
L 1088.657851 467.946329 
L 1089.21124 468.257478 
L 1089.764628 467.655523 
L 1090.318017 467.986165 
L 1090.871405 466.713843 
L 1091.424793 462.344001 
L 1091.978182 463.422187 
L 1092.53157 460.554072 
L 1093.084959 454.065304 
L 1093.638347 459.145509 
L 1094.191736 457.115817 
L 1094.745124 448.852152 
L 1095.851901 453.93156 
L 1096.405289 438.454848 
L 1096.958678 435.941224 
L 1097.512066 433.957317 
L 1098.618843 432.797175 
L 1099.172231 426.656259 
L 1099.72562 426.917426 
L 1100.279008 432.557466 
L 1100.832397 432.567133 
L 1101.385785 431.626409 
L 1101.939174 435.139503 
L 1102.492562 441.731685 
L 1103.04595 443.913499 
L 1103.599339 445.566445 
L 1104.152727 445.728765 
L 1104.706116 456.604743 
L 1105.259504 458.602406 
L 1105.812893 456.567987 
L 1106.366281 458.213709 
L 1106.919669 457.457667 
L 1107.473058 457.55423 
L 1108.026446 456.223163 
L 1109.133223 465.638048 
L 1109.686612 454.385377 
L 1110.24 455.822674 
L 1110.793388 455.663116 
L 1111.346777 461.840735 
L 1111.900165 475.152045 
L 1112.453554 480.518807 
L 1113.006942 479.329132 
L 1113.560331 468.165748 
L 1114.113719 465.26178 
L 1114.667107 464.114278 
L 1115.220496 463.510836 
L 1115.773884 466.065147 
L 1116.327273 470.000188 
L 1116.880661 472.516575 
L 1117.43405 470.652071 
L 1117.987438 472.957962 
L 1118.540826 472.830432 
L 1119.094215 476.023082 
L 1120.200992 477.90097 
L 1120.75438 482.163573 
L 1121.861157 493.605069 
L 1122.414545 488.407426 
L 1122.967934 492.168568 
L 1123.521322 499.157733 
L 1124.074711 501.754005 
L 1124.628099 486.190609 
L 1125.181488 490.105201 
L 1125.734876 492.056813 
L 1126.288264 483.724523 
L 1126.841653 468.412681 
L 1127.94843 465.431217 
L 1128.501818 469.525338 
L 1129.055207 469.318401 
L 1129.608595 467.354838 
L 1130.715372 475.618981 
L 1131.26876 474.68171 
L 1131.822149 472.17993 
L 1132.375537 468.941496 
L 1132.928926 464.671351 
L 1133.482314 454.859802 
L 1134.035702 465.408643 
L 1134.589091 460.090907 
L 1135.142479 452.137753 
L 1136.249256 440.378681 
L 1136.802645 438.035504 
L 1137.356033 441.478645 
L 1137.909421 443.502387 
L 1138.46281 450.026636 
L 1139.016198 446.379108 
L 1139.569587 444.728977 
L 1140.122975 445.75989 
L 1140.676364 448.725366 
L 1141.229752 452.473069 
L 1141.78314 454.751234 
L 1142.336529 453.348993 
L 1142.889917 452.745551 
L 1143.443306 464.205212 
L 1143.996694 466.519282 
L 1144.550083 460.255564 
L 1145.65686 468.645006 
L 1146.210248 474.384318 
L 1147.317025 480.737004 
L 1147.870413 483.923705 
L 1148.423802 478.695468 
L 1148.97719 479.313729 
L 1149.530579 478.67863 
L 1150.637355 464.028019 
L 1151.190744 462.514236 
L 1151.744132 450.648934 
L 1152.297521 449.230067 
L 1152.850909 448.370928 
L 1153.957686 434.345855 
L 1154.511074 434.399023 
L 1155.617851 425.998693 
L 1156.17124 422.692695 
L 1156.724628 415.97617 
L 1157.278017 415.848321 
L 1157.831405 422.074328 
L 1158.384793 423.312125 
L 1158.938182 432.618442 
L 1159.49157 426.062803 
L 1160.044959 423.351271 
L 1160.598347 424.996196 
L 1161.151736 421.172113 
L 1161.705124 424.307504 
L 1162.258512 423.083145 
L 1162.811901 424.394507 
L 1163.365289 423.102745 
L 1163.918678 423.195803 
L 1164.472066 427.130153 
L 1165.025455 437.049845 
L 1165.578843 441.280047 
L 1166.132231 441.542011 
L 1166.68562 441.572552 
L 1167.239008 445.626465 
L 1167.792397 445.99296 
L 1168.345785 448.910844 
L 1168.899174 460.016864 
L 1169.452562 459.787672 
L 1170.00595 459.030409 
L 1170.559339 460.916264 
L 1171.112727 457.704334 
L 1172.219504 442.832286 
L 1172.772893 437.460638 
L 1173.326281 439.226506 
L 1173.879669 437.54286 
L 1174.433058 416.644572 
L 1174.986446 417.058764 
L 1175.539835 418.630762 
L 1176.093223 418.944886 
L 1176.646612 426.89873 
L 1177.2 431.473384 
L 1177.753388 429.05218 
L 1178.306777 430.069071 
L 1178.860165 429.185181 
L 1179.413554 427.985945 
L 1179.966942 431.144176 
L 1181.073719 434.855389 
L 1181.627107 431.964859 
L 1182.180496 437.260128 
L 1182.733884 438.117779 
L 1183.287273 436.660191 
L 1183.840661 438.57712 
L 1184.39405 444.545411 
L 1184.947438 446.066046 
L 1185.500826 444.844503 
L 1186.054215 442.911109 
L 1186.607603 453.112789 
L 1187.160992 454.572926 
L 1187.71438 462.585463 
L 1188.267769 458.298746 
L 1188.821157 452.330933 
L 1189.374545 452.787087 
L 1189.927934 457.59991 
L 1190.481322 457.354305 
L 1191.034711 450.31367 
L 1191.588099 453.107212 
L 1192.141488 454.048095 
L 1192.694876 464.300341 
L 1193.248264 462.708956 
L 1194.355041 461.787301 
L 1194.90843 467.038909 
L 1195.461818 470.935069 
L 1195.461818 470.935069 
" clip-path="url(#pe4d0f75b5b)" style="fill: none; stroke: #ff0000; stroke-width: 1.5; stroke-linecap: square"/>
   </g>
   <g id="patch_3">
    <path d="M 172.8 624.78 
L 172.8 84.24 
" style="fill: none; stroke: #000000; stroke-width: 0.8; stroke-linejoin: miter; stroke-linecap: square"/>
   </g>
   <g id="patch_4">
    <path d="M 1244.16 624.78 
L 1244.16 84.24 
" style="fill: none; stroke: #000000; stroke-width: 0.8; stroke-linejoin: miter; stroke-linecap: square"/>
   </g>
   <g id="patch_5">
    <path d="M 172.8 624.78 
L 1244.16 624.78 
" style="fill: none; stroke: #000000; stroke-width: 0.8; stroke-linejoin: miter; stroke-linecap: square"/>
   </g>
   <g id="patch_6">
    <path d="M 172.8 84.24 
L 1244.16 84.24 
" style="fill: none; stroke: #000000; stroke-width: 0.8; stroke-linejoin: miter; stroke-linecap: square"/>
   </g>
  </g>
 </g>
 <defs>
  <clipPath id="pe4d0f75b5b">
   <rect x="172.8" y="84.24" width="1071.36" height="540.54"/>
  </clipPath>
 </defs>
</svg>
